<svg width="32" height="32" viewBox="0 0 32 32" fill="none" xmlns="http://www.w3.org/2000/svg">
<path d="M25.2904 18.3637C25.2914 18.1882 25.2578 18.0142 25.1914 17.8518C25.1251 17.6893 25.0273 17.5416 24.9037 17.417L16.9037 9.417C16.6539 9.16866 16.316 9.02927 15.9637 9.02927C15.6115 9.02927 15.2736 9.16866 15.0237 9.417L7.02373 17.417C6.8053 17.6721 6.69116 18.0002 6.70412 18.3357C6.71708 18.6713 6.85619 18.9896 7.09365 19.2271C7.33111 19.4645 7.64943 19.6036 7.985 19.6166C8.32056 19.6296 8.64867 19.5154 8.90373 19.297L15.9571 12.2437L23.0104 19.297C23.1961 19.4842 23.4331 19.6122 23.6916 19.6647C23.95 19.7172 24.2182 19.6919 24.4622 19.592C24.7062 19.4921 24.9152 19.3221 25.0626 19.1035C25.21 18.8848 25.2893 18.6274 25.2904 18.3637Z" fill="#FDFDFD"/>
</svg>
