<svg width="20" height="20" viewBox="0 0 20 20" fill="none" xmlns="http://www.w3.org/2000/svg">
<path d="M12.5 15.8329C12.3903 15.8335 12.2816 15.8125 12.1801 15.771C12.0786 15.7295 11.9862 15.6684 11.9083 15.5912L6.90834 10.5912C6.75313 10.4351 6.66602 10.2239 6.66602 10.0037C6.66602 9.78355 6.75313 9.57234 6.90834 9.4162L11.9083 4.4162C12.0678 4.27968 12.2728 4.20834 12.4826 4.21644C12.6923 4.22454 12.8912 4.31149 13.0396 4.4599C13.1881 4.60831 13.275 4.80726 13.2831 5.01699C13.2912 5.22672 13.2199 5.43178 13.0833 5.5912L8.67501 9.99953L13.0833 14.4079C13.2004 14.5239 13.2803 14.6721 13.3132 14.8336C13.346 14.9951 13.3302 15.1627 13.2677 15.3152C13.2053 15.4678 13.099 15.5984 12.9624 15.6905C12.8257 15.7826 12.6648 15.8322 12.5 15.8329Z" fill="#322733"/>
</svg>
