<svg width="20" height="20" viewBox="0 0 20 20" fill="none" xmlns="http://www.w3.org/2000/svg">
<path d="M7.49998 15.8332C7.33446 15.8341 7.17241 15.7858 7.03447 15.6943C6.89654 15.6028 6.78898 15.4723 6.72551 15.3194C6.66204 15.1665 6.64553 14.9982 6.67808 14.8359C6.71064 14.6736 6.79079 14.5247 6.90832 14.4082L11.325 9.99983L6.90832 5.5915C6.7514 5.43458 6.66324 5.22175 6.66324 4.99983C6.66324 4.88995 6.68488 4.78114 6.72693 4.67962C6.76898 4.5781 6.83062 4.48586 6.90832 4.40816C6.98602 4.33046 7.07826 4.26883 7.17978 4.22678C7.28129 4.18473 7.3901 4.16309 7.49998 4.16309C7.7219 4.16309 7.93473 4.25124 8.09165 4.40816L13.0917 9.40816C13.2469 9.5643 13.334 9.77551 13.334 9.99566C13.334 10.2158 13.2469 10.427 13.0917 10.5832L8.09165 15.5832C8.01447 15.6619 7.92243 15.7245 7.82087 15.7675C7.71931 15.8104 7.61024 15.8327 7.49998 15.8332Z" fill="#322733"/>
</svg>
