<svg width="20" height="20" viewBox="0 0 20 20" fill="none" xmlns="http://www.w3.org/2000/svg">
<path d="M7.50029 15.8332C7.33477 15.8341 7.17271 15.7858 7.03478 15.6943C6.89685 15.6028 6.78929 15.4723 6.72581 15.3194C6.66234 15.1665 6.64583 14.9982 6.67839 14.8359C6.71095 14.6736 6.7911 14.5247 6.90862 14.4082L11.3253 9.99983L6.90862 5.5915C6.7517 5.43458 6.66355 5.22175 6.66355 4.99983C6.66355 4.88995 6.68519 4.78114 6.72724 4.67962C6.76929 4.5781 6.83092 4.48586 6.90862 4.40816C6.98632 4.33046 7.07856 4.26883 7.18008 4.22678C7.2816 4.18473 7.39041 4.16309 7.50029 4.16309C7.72221 4.16309 7.93504 4.25124 8.09196 4.40816L13.092 9.40816C13.2472 9.5643 13.3343 9.77551 13.3343 9.99566C13.3343 10.2158 13.2472 10.427 13.092 10.5832L8.09196 15.5832C8.01478 15.6619 7.92274 15.7245 7.82118 15.7675C7.71961 15.8104 7.61055 15.8327 7.50029 15.8332Z" fill="#FE6E00"/>
</svg>
