<svg width="20" height="20" viewBox="0 0 20 20" fill="none" xmlns="http://www.w3.org/2000/svg">
<path d="M15.8065 8.52222C15.8071 8.63189 15.7861 8.74061 15.7446 8.84214C15.7032 8.94368 15.6421 9.03602 15.5648 9.11389L10.5648 14.1139C10.4087 14.2691 10.1975 14.3562 9.97733 14.3562C9.75718 14.3562 9.54597 14.2691 9.38983 14.1139L4.38983 9.11389C4.25331 8.95447 4.18197 8.74941 4.19007 8.53968C4.19818 8.32995 4.28512 8.131 4.43353 7.98259C4.58194 7.83417 4.78089 7.74723 4.99062 7.73913C5.20035 7.73103 5.40542 7.80237 5.56483 7.93889L9.97317 12.3472L14.3815 7.93889C14.4976 7.82187 14.6457 7.7419 14.8072 7.70907C14.9687 7.67625 15.1364 7.69206 15.2889 7.7545C15.4414 7.81694 15.572 7.9232 15.6641 8.05985C15.7563 8.19651 15.8058 8.35741 15.8065 8.52222Z" fill="#AEB2B7"/>
</svg>
