<svg width="24" height="24" viewBox="0 0 24 24" fill="none" xmlns="http://www.w3.org/2000/svg">
<path d="M14.9998 18.9991C14.8682 18.9998 14.7377 18.9746 14.6159 18.9248C14.4941 18.8751 14.3833 18.8017 14.2898 18.7091L8.28982 12.7091C8.10356 12.5217 7.99902 12.2682 7.99902 12.0041C7.99902 11.7399 8.10356 11.4864 8.28982 11.2991L14.2898 5.29905C14.4811 5.13522 14.7272 5.04962 14.9789 5.05934C15.2305 5.06906 15.4693 5.17339 15.6474 5.35149C15.8255 5.52958 15.9298 5.76832 15.9395 6.02C15.9492 6.27167 15.8636 6.51775 15.6998 6.70905L10.4098 11.9991L15.6998 17.2891C15.8402 17.4283 15.9362 17.6061 15.9756 17.7999C16.015 17.9937 15.996 18.1949 15.9211 18.3779C15.8462 18.5609 15.7186 18.7176 15.5547 18.8282C15.3907 18.9388 15.1976 18.9982 14.9998 18.9991Z" fill="#FE6E00"/>
</svg>
