<svg width="48" height="48" viewBox="0 0 48 48" fill="none" xmlns="http://www.w3.org/2000/svg">
<rect x="0.5" y="0.5" width="47" height="47" rx="23.5" fill="#FDFDFD"/>
<rect x="0.5" y="0.5" width="47" height="47" rx="23.5" stroke="#EEEDEB"/>
<path d="M40 24.0004L27.1709 26.3999L26.5701 26.5666L26.4268 27.0195L24.0288 40L23.9658 39.9193C23.1689 35.8849 22.565 31.8063 21.7467 27.7763C21.7081 27.5847 21.5355 26.6638 21.4366 26.5755C21.3341 26.4841 20.4506 26.3183 20.2554 26.2782L8 24.0147L20.7949 21.6237L21.4596 21.4334L21.626 20.8294L24.0004 8C24.0275 8 24.1105 8.43282 24.1216 8.48943C24.899 12.4169 25.4821 16.3889 26.2825 20.311C26.3198 20.492 26.4818 21.3599 26.5758 21.4419C26.6451 21.5016 26.8377 21.5087 26.9273 21.5542L40 24.0004Z" fill="#322733"/>
</svg>
