<svg width="24" height="24" viewBox="0 0 24 24" fill="none" xmlns="http://www.w3.org/2000/svg">
<path d="M15 2H9.00002C7.67442 2.00156 6.40356 2.52884 5.46621 3.46618C4.52887 4.40352 4.00158 5.67437 4 6.99997V19.998C4.00004 20.363 4.09995 20.721 4.2889 21.0333C4.47786 21.3456 4.74865 21.6002 5.07195 21.7696C5.39526 21.939 5.75875 22.0167 6.12305 21.9943C6.48735 21.9719 6.83859 21.8503 7.1387 21.6425L11.998 18.2754L16.8618 21.6425C17.1619 21.8503 17.5131 21.972 17.8774 21.9944C18.2417 22.0168 18.6052 21.9391 18.9284 21.7697C19.2517 21.6003 19.5225 21.3456 19.7114 21.0333C19.9003 20.721 20.0001 20.363 20 19.998V6.99997C19.9985 5.67437 19.4712 4.40352 18.5338 3.46618C17.5965 2.52884 16.3256 2.00156 15 2ZM18 19.998L13.1372 16.6309C12.802 16.4006 12.4049 16.2773 11.9983 16.2773C11.5917 16.2773 11.1946 16.4006 10.8594 16.6309L6.00002 19.998V6.99997C6.00088 6.20459 6.31723 5.44203 6.87965 4.87961C7.44208 4.31719 8.20463 4.00084 9.00002 3.99997H15C15.7954 4.00084 16.558 4.31719 17.1204 4.87961C17.6828 5.44203 17.9991 6.20459 18 6.99997V19.998Z" fill="#322733"/>
</svg>
