<svg width="24" height="24" viewBox="0 0 24 24" fill="none" xmlns="http://www.w3.org/2000/svg">
<path d="M21.2108 6.5145C21.0923 4.54388 19.4468 3 17.4649 3H16.5V2.25C16.5 2.05109 16.421 1.86032 16.2803 1.71967C16.1397 1.57902 15.9489 1.5 15.75 1.5C15.5511 1.5 15.3603 1.57902 15.2197 1.71967C15.079 1.86032 15 2.05109 15 2.25V3H9.00001V2.25C9.00001 2.05109 8.92099 1.86032 8.78034 1.71967C8.63969 1.57902 8.44892 1.5 8.25001 1.5C8.0511 1.5 7.86033 1.57902 7.71968 1.71967C7.57903 1.86032 7.50001 2.05109 7.50001 2.25V3H6.53514C4.55289 3 2.90739 4.54388 2.78926 6.5145C2.56689 10.221 2.57101 13.9808 2.80164 17.6891C2.91864 19.5724 4.42726 21.081 6.31051 21.198C8.19789 21.3154 10.0988 21.3739 11.9996 21.3739C13.9001 21.3739 15.8014 21.3154 17.6888 21.198C19.572 21.081 21.0806 19.5724 21.1976 17.6891C21.4286 13.9826 21.4328 10.2233 21.2108 6.5145ZM19.701 17.5961C19.6663 18.143 19.4333 18.6584 19.0459 19.0459C18.6584 19.4333 18.143 19.6662 17.5961 19.701C13.8829 19.9316 10.1171 19.9316 6.40389 19.701C5.85704 19.6662 5.34161 19.4333 4.95415 19.0459C4.56668 18.6584 4.33376 18.143 4.29901 17.5961C4.12322 14.7343 4.08355 11.8656 4.18014 9H19.8203C19.9148 11.865 19.8784 14.7461 19.701 17.5961ZM8.25001 6C8.44892 6 8.63969 5.92098 8.78034 5.78033C8.92099 5.63968 9.00001 5.44891 9.00001 5.25V4.5H15V5.25C15 5.44891 15.079 5.63968 15.2197 5.78033C15.3603 5.92098 15.5511 6 15.75 6C15.9489 6 16.1397 5.92098 16.2803 5.78033C16.421 5.63968 16.5 5.44891 16.5 5.25V4.5H17.4649C18.6548 4.5 19.6425 5.42438 19.7134 6.60413C19.731 6.90188 19.7385 7.2015 19.7531 7.5H4.24689C4.26189 7.2015 4.26901 6.90188 4.28664 6.60413C4.35751 5.42438 5.34489 4.5 6.53514 4.5H7.50001V5.25C7.50001 5.44891 7.57903 5.63968 7.71968 5.78033C7.86033 5.92098 8.0511 6 8.25001 6Z" fill="#FE6E00"/>
<path d="M8.25 13.5C8.87132 13.5 9.375 12.9963 9.375 12.375C9.375 11.7537 8.87132 11.25 8.25 11.25C7.62868 11.25 7.125 11.7537 7.125 12.375C7.125 12.9963 7.62868 13.5 8.25 13.5Z" fill="#FE6E00"/>
<path d="M12 13.5C12.6213 13.5 13.125 12.9963 13.125 12.375C13.125 11.7537 12.6213 11.25 12 11.25C11.3787 11.25 10.875 11.7537 10.875 12.375C10.875 12.9963 11.3787 13.5 12 13.5Z" fill="#FE6E00"/>
<path d="M8.25 17.25C8.87132 17.25 9.375 16.7463 9.375 16.125C9.375 15.5037 8.87132 15 8.25 15C7.62868 15 7.125 15.5037 7.125 16.125C7.125 16.7463 7.62868 17.25 8.25 17.25Z" fill="#FE6E00"/>
<path d="M15.75 13.5C16.3713 13.5 16.875 12.9963 16.875 12.375C16.875 11.7537 16.3713 11.25 15.75 11.25C15.1287 11.25 14.625 11.7537 14.625 12.375C14.625 12.9963 15.1287 13.5 15.75 13.5Z" fill="#FE6E00"/>
<path d="M15.75 17.25C16.3713 17.25 16.875 16.7463 16.875 16.125C16.875 15.5037 16.3713 15 15.75 15C15.1287 15 14.625 15.5037 14.625 16.125C14.625 16.7463 15.1287 17.25 15.75 17.25Z" fill="#FE6E00"/>
<path d="M12 17.25C12.6213 17.25 13.125 16.7463 13.125 16.125C13.125 15.5037 12.6213 15 12 15C11.3787 15 10.875 15.5037 10.875 16.125C10.875 16.7463 11.3787 17.25 12 17.25Z" fill="#FE6E00"/>
</svg>
