<svg width="20" height="20" viewBox="0 0 20 20" fill="none" xmlns="http://www.w3.org/2000/svg">
<path d="M11.4141 10L15.707 5.70703C16.0977 5.31641 16.0977 4.68359 15.707 4.29297C15.3164 3.90234 14.6836 3.90234 14.293 4.29297L10 8.58594L5.70703 4.29297C5.31641 3.90234 4.68359 3.90234 4.29297 4.29297C3.90234 4.68359 3.90234 5.31641 4.29297 5.70703L8.58594 10L4.29297 14.293C3.90234 14.6836 3.90234 15.3164 4.29297 15.707C4.48828 15.9023 4.74414 16 5 16C5.25586 16 5.51172 15.9023 5.70703 15.707L10 11.4141L14.293 15.707C14.4883 15.9023 14.7441 16 15 16C15.2559 16 15.5117 15.9023 15.707 15.707C16.0977 15.3164 16.0977 14.6836 15.707 14.293L11.4141 10Z" fill="#AEB2B7"/>
</svg>
