<svg width="24" height="24" viewBox="0 0 24 24" fill="none" xmlns="http://www.w3.org/2000/svg">
<path d="M12 2.00001C10.4693 1.99902 8.9587 2.34946 7.58473 3.02435C6.21077 3.69924 5.01007 4.68054 4.07518 5.89266C3.14028 7.10478 2.49614 8.51535 2.19239 10.0157C1.88863 11.516 1.93337 13.0661 2.32316 14.5464C2.71295 16.0267 3.43738 17.3978 4.44064 18.5539C5.44389 19.7101 6.69919 20.6205 8.1098 21.215C9.5204 21.8095 11.0487 22.0723 12.5768 21.983C14.105 21.8937 15.5923 21.4548 16.924 20.7L20.684 21.953C20.7861 21.9857 20.8929 22.0016 21 22C21.1584 21.9999 21.3145 21.9622 21.4554 21.8899C21.5964 21.8177 21.7181 21.713 21.8107 21.5845C21.9032 21.456 21.964 21.3074 21.9879 21.1508C22.0117 20.9943 21.9981 20.8343 21.948 20.684L20.7 16.924C21.5644 15.4035 22.0143 13.6827 22.0048 11.9337C21.9953 10.1846 21.5267 8.4688 20.6458 6.95778C19.765 5.44676 18.5028 4.19353 16.9855 3.32348C15.4682 2.45343 13.7491 1.99705 12 2.00001ZM18.653 17.12L19.419 19.42L17.119 18.654C16.9788 18.6059 16.8295 18.59 16.6822 18.6073C16.5349 18.6246 16.3934 18.6747 16.268 18.754C14.6002 19.8095 12.6017 20.213 10.655 19.8871C8.70828 19.5612 6.95013 18.5289 5.71699 16.9877C4.48386 15.4465 3.86235 13.5047 3.97143 11.5339C4.0805 9.56317 4.9125 7.70183 6.30818 6.30615C7.70386 4.91047 9.5652 4.07847 11.536 3.9694C13.5067 3.86032 15.4485 4.48183 16.9897 5.71496C18.5309 6.9481 19.5632 8.70625 19.8891 10.653C20.215 12.5997 19.8116 14.5982 18.756 16.266C18.6764 16.3917 18.6258 16.5336 18.608 16.6814C18.5902 16.8291 18.6056 16.979 18.653 17.12Z" fill="#322733"/>
</svg>
