<svg width="12" height="12" viewBox="0 0 12 12" fill="none" xmlns="http://www.w3.org/2000/svg">
<path d="M6.35156 12H1.875C0.841102 12 0 11.1589 0 10.125V3.77344C0 2.73954 0.841102 1.89844 1.875 1.89844H6.35156C7.38546 1.89844 8.22656 2.73954 8.22656 3.77344V10.125C8.22656 11.1589 7.38546 12 6.35156 12ZM1.875 2.83594C1.35809 2.83594 0.9375 3.25652 0.9375 3.77344V10.125C0.9375 10.6419 1.35809 11.0625 1.875 11.0625H6.35156C6.86848 11.0625 7.28906 10.6419 7.28906 10.125V3.77344C7.28906 3.25652 6.86848 2.83594 6.35156 2.83594H1.875ZM10.1016 8.95312V1.875C10.1016 0.841102 9.26046 0 8.22656 0H3.02344C2.76452 0 2.55469 0.209836 2.55469 0.46875C2.55469 0.727664 2.76452 0.9375 3.02344 0.9375H8.22656C8.74348 0.9375 9.16406 1.35809 9.16406 1.875V8.95312C9.16406 9.21204 9.3739 9.42188 9.63281 9.42188C9.89173 9.42188 10.1016 9.21204 10.1016 8.95312Z" fill="#FE6E00"/>
</svg>
