<svg width="154" height="77" viewBox="0 0 154 77" fill="none" xmlns="http://www.w3.org/2000/svg">
<path d="M153.708 76.7552C153.975 76.9593 153.708 77.0477 153.468 77.0817C152.761 77.1701 151.904 77.0341 151.163 77.0817C114.99 79.4899 86.6775 101.891 79.1054 137.395C77.9806 142.66 77.3633 148.034 77.1644 153.408C76.794 152.381 76.9998 151.286 76.9175 150.225C73.7282 108.401 45.1754 80.1565 3.00118 77.0749C2.17128 77.0137 0.854406 77.3538 0.291992 76.7484C16.458 76.3674 32.7886 71.4422 45.8956 62.0409C63.4333 49.4491 73.8174 30.0409 76.41 8.79599C76.7529 6.00688 76.7803 3.17694 77.1713 0.415039C77.672 17.5919 83.1384 34.6327 93.7968 48.1905C108.07 66.347 130.635 76.211 153.714 76.7484L153.708 76.7552Z" fill="#322733"/>
</svg>
