<svg width="16" height="17" viewBox="0 0 16 17" fill="none" xmlns="http://www.w3.org/2000/svg">
<path d="M10 1.83301H6C5.11627 1.83405 4.26903 2.18557 3.64413 2.81046C3.01924 3.43535 2.66771 4.28259 2.66666 5.16632V13.8317C2.66669 14.075 2.73329 14.3137 2.85926 14.5219C2.98523 14.7301 3.16576 14.8998 3.38129 15.0128C3.59683 15.1257 3.83915 15.1775 4.08202 15.1626C4.32489 15.1476 4.55905 15.0665 4.75913 14.928L7.99869 12.6833L11.2412 14.928C11.4413 15.0665 11.6754 15.1477 11.9183 15.1626C12.1611 15.1775 12.4034 15.1257 12.619 15.0128C12.8345 14.8999 13.015 14.7301 13.1409 14.5219C13.2668 14.3137 13.3334 14.075 13.3333 13.8317V5.16632C13.3323 4.28259 12.9808 3.43535 12.3559 2.81046C11.731 2.18557 10.8837 1.83405 10 1.83301ZM12 13.8317L8.75813 11.5869C8.53468 11.4334 8.26995 11.3512 7.99886 11.3512C7.72776 11.3512 7.46304 11.4334 7.23959 11.5869L4 13.8317V5.16632C4.00058 4.63606 4.21148 4.12769 4.58643 3.75275C4.96137 3.3778 5.46974 3.1669 6 3.16632H10C10.5303 3.1669 11.0386 3.3778 11.4136 3.75275C11.7885 4.12769 11.9994 4.63606 12 5.16632V13.8317Z" fill="#AEB2B7"/>
</svg>
