<svg width="16" height="16" viewBox="0 0 16 16" fill="none" xmlns="http://www.w3.org/2000/svg">
<path d="M8.51781 5.17383H0.78125C0.57405 5.17383 0.375336 5.09152 0.228823 4.94501C0.08231 4.79849 0 4.59978 0 4.39258C0 4.18538 0.08231 3.98666 0.228823 3.84015C0.375336 3.69364 0.57405 3.61133 0.78125 3.61133H8.51875C8.72595 3.61133 8.92466 3.69364 9.07118 3.84015C9.21769 3.98666 9.3 4.18538 9.3 4.39258C9.3 4.59978 9.21769 4.79849 9.07118 4.94501C8.92466 5.09152 8.72595 5.17383 8.51875 5.17383H8.51781ZM15.2188 5.17383H13.2631C13.0559 5.17383 12.8572 5.09152 12.7107 4.94501C12.5642 4.79849 12.4819 4.59978 12.4819 4.39258C12.4819 4.18538 12.5642 3.98666 12.7107 3.84015C12.8572 3.69364 13.0559 3.61133 13.2631 3.61133H15.2188C15.426 3.61133 15.6247 3.69364 15.7712 3.84015C15.9177 3.98666 16 4.18538 16 4.39258C16 4.59978 15.9177 4.79849 15.7712 4.94501C15.6247 5.09152 15.426 5.17383 15.2188 5.17383ZM15.2188 12.3888H7.48219C7.27499 12.3888 7.07627 12.3065 6.92976 12.16C6.78325 12.0135 6.70094 11.8148 6.70094 11.6076C6.70094 11.4004 6.78325 11.2017 6.92976 11.0552C7.07627 10.9086 7.27499 10.8263 7.48219 10.8263H15.2188C15.426 10.8263 15.6247 10.9086 15.7712 11.0552C15.9177 11.2017 16 11.4004 16 11.6076C16 11.8148 15.9177 12.0135 15.7712 12.16C15.6247 12.3065 15.426 12.3888 15.2188 12.3888ZM2.73688 12.3888H0.78125C0.57405 12.3888 0.375336 12.3065 0.228823 12.16C0.08231 12.0135 0 11.8148 0 11.6076C0 11.4004 0.08231 11.2017 0.228823 11.0552C0.375336 10.9086 0.57405 10.8263 0.78125 10.8263H2.73688C2.94408 10.8263 3.14279 10.9086 3.2893 11.0552C3.43581 11.2017 3.51813 11.4004 3.51813 11.6076C3.51813 11.8148 3.43581 12.0135 3.2893 12.16C3.14279 12.3065 2.94408 12.3888 2.73688 12.3888Z" fill="#FE6E00"/>
<path d="M5.11141 14.7036C4.48758 14.7037 3.87774 14.5187 3.35902 14.1722C2.8403 13.8257 2.43598 13.3331 2.19721 12.7568C1.95844 12.1804 1.89593 11.5462 2.0176 10.9344C2.13926 10.3225 2.43963 9.76052 2.88073 9.31938C3.32182 8.87825 3.88382 8.57782 4.49565 8.4561C5.10749 8.33437 5.74168 8.39681 6.31803 8.63553C6.89438 8.87424 7.38699 9.27851 7.73358 9.7972C8.08017 10.3159 8.26516 10.9257 8.26516 11.5495C8.26458 12.3858 7.93213 13.1877 7.34082 13.779C6.74952 14.3704 5.94769 14.7029 5.11141 14.7036ZM5.11141 9.95828C4.7966 9.95822 4.48884 10.0515 4.22707 10.2264C3.96529 10.4012 3.76124 10.6498 3.64074 10.9406C3.52024 11.2315 3.4887 11.5515 3.5501 11.8603C3.6115 12.169 3.76309 12.4526 3.98569 12.6753C4.20829 12.8979 4.49191 13.0494 4.80067 13.1108C5.10944 13.1722 5.42947 13.1407 5.7203 13.0202C6.01114 12.8997 6.2597 12.6957 6.43456 12.4339C6.60942 12.1721 6.70272 11.8643 6.70266 11.5495C6.702 11.1277 6.53413 10.7234 6.23586 10.4251C5.93759 10.1268 5.53323 9.95894 5.11141 9.95828ZM10.892 7.54641C10.2682 7.54641 9.65841 7.36142 9.13973 7.01485C8.62105 6.66828 8.21678 6.17568 7.97806 5.59935C7.73934 5.02302 7.67687 4.38885 7.79857 3.77702C7.92027 3.16519 8.22067 2.60319 8.66177 2.16209C9.10288 1.72098 9.66488 1.42059 10.2767 1.29889C10.8885 1.17719 11.5227 1.23965 12.099 1.47837C12.6754 1.71709 13.168 2.12136 13.5145 2.64004C13.8611 3.15873 14.0461 3.76853 14.0461 4.39235C14.0455 5.22868 13.713 6.03059 13.1217 6.62196C12.5303 7.21334 11.7284 7.54583 10.892 7.54641ZM10.892 2.8011C10.5772 2.8011 10.2695 2.89445 10.0078 3.06934C9.74604 3.24424 9.54204 3.49283 9.42159 3.78367C9.30114 4.0745 9.26964 4.39453 9.33107 4.70327C9.39251 5.01201 9.54412 5.2956 9.76674 5.51817C9.98935 5.74074 10.273 5.8923 10.5817 5.95368C10.8905 6.01505 11.2105 5.98349 11.5013 5.86298C11.7921 5.74247 12.0407 5.53843 12.2155 5.27665C12.3904 5.01488 12.4837 4.70714 12.4836 4.39235C12.4829 3.97047 12.315 3.56606 12.0167 3.26778C11.7183 2.9695 11.3139 2.80167 10.892 2.8011Z" fill="#FE6E00"/>
</svg>
