<svg width="12" height="12" viewBox="0 0 12 12" fill="none" xmlns="http://www.w3.org/2000/svg">
<path fill-rule="evenodd" clip-rule="evenodd" d="M5.5 1H3C2.46957 1 1.96086 1.21071 1.58579 1.58579C1.21071 1.96086 1 2.46957 1 3V9C1 9.53043 1.21071 10.0391 1.58579 10.4142C1.96086 10.7893 2.46957 11 3 11H9C9.53043 11 10.0391 10.7893 10.4142 10.4142C10.7893 10.0391 11 9.53043 11 9V6.5C11 6.36739 10.9473 6.24021 10.8536 6.14645C10.7598 6.05268 10.6326 6 10.5 6C10.3674 6 10.2402 6.05268 10.1464 6.14645C10.0527 6.24021 10 6.36739 10 6.5V9C10 9.26522 9.89464 9.51957 9.70711 9.70711C9.51957 9.89464 9.26522 10 9 10H3C2.73478 10 2.48043 9.89464 2.29289 9.70711C2.10536 9.51957 2 9.26522 2 9V3C2 2.73478 2.10536 2.48043 2.29289 2.29289C2.48043 2.10536 2.73478 2 3 2H5.5C5.63261 2 5.75979 1.94732 5.85355 1.85355C5.94732 1.75979 6 1.63261 6 1.5C6 1.36739 5.94732 1.24021 5.85355 1.14645C5.75979 1.05268 5.63261 1 5.5 1ZM9.293 2H7.5C7.36739 2 7.24021 1.94732 7.14645 1.85355C7.05268 1.75979 7 1.63261 7 1.5C7 1.36739 7.05268 1.24021 7.14645 1.14645C7.24021 1.05268 7.36739 1 7.5 1H10.5C10.6326 1 10.7598 1.05268 10.8536 1.14645C10.9473 1.24021 11 1.36739 11 1.5V4.5C11 4.63261 10.9473 4.75979 10.8536 4.85355C10.7598 4.94732 10.6326 5 10.5 5C10.3674 5 10.2402 4.94732 10.1464 4.85355C10.0527 4.75979 10 4.63261 10 4.5V2.707L6.3535 6.3535C6.2592 6.44458 6.1329 6.49498 6.0018 6.49384C5.8707 6.4927 5.74529 6.44011 5.65259 6.34741C5.55989 6.25471 5.5073 6.1293 5.50616 5.9982C5.50502 5.8671 5.55542 5.7408 5.6465 5.6465L9.293 2Z" fill="#FE6E00"/>
</svg>
