<svg width="308" height="61" viewBox="0 0 308 61" fill="none" xmlns="http://www.w3.org/2000/svg">
<path d="M29.4783 29.0195C29.4783 12.8895 41.8346 0.5 69.2675 0.5C96.0787 0.5 107.425 10.9414 108.901 28.0066H77.8936C77.1944 25.4352 74.9406 23.0975 69.1899 23.0975C63.0507 23.0975 60.1752 26.0585 60.1752 30.1882V30.8118C60.1752 34.9415 63.0507 37.9025 69.1899 37.9025C74.9406 37.9025 77.1944 35.5648 77.8936 32.9936H108.901C107.425 50.0586 96.0787 60.5 69.2675 60.5C41.8346 60.5 29.4783 48.1105 29.4783 31.9805V29.0195Z" fill="#FDFDFD"/>
<path d="M112.864 2.05833H143.016V31.3572C143.016 35.2533 144.882 37.1234 149.311 37.1234C153.741 37.1234 155.761 35.2533 155.761 31.3572V2.05833H185.837V33.461C185.837 49.4351 174.723 60.5 149.311 60.5C123.977 60.5 112.864 49.4351 112.864 33.461V2.05833Z" fill="#FDFDFD"/>
<path d="M191.664 58.9414V2.05807H222.127V35.5648H248.55V58.9414H191.664Z" fill="#FDFDFD"/>
<path d="M236.037 25.1232V2.05807H308V25.1232H287.251V58.9414H256.942V25.1232H236.037Z" fill="#FDFDFD"/>
<path d="M308 50.3202L301.074 51.6131L300.75 51.7029L300.673 51.9469L299.378 58.9414L299.344 58.8979C298.914 56.724 298.588 54.5263 298.146 52.3548C298.125 52.2515 298.032 51.7553 297.979 51.7077C297.923 51.6585 297.447 51.5691 297.341 51.5475L290.725 50.3278L297.632 49.0395L297.991 48.9369L298.081 48.6115L299.363 41.6984C299.377 41.6984 299.422 41.9316 299.428 41.9621C299.848 44.0784 300.163 46.2187 300.595 48.3321C300.615 48.4296 300.702 48.8973 300.753 48.9415C300.791 48.9737 300.894 48.9775 300.943 49.002L308 50.3202Z" fill="#FDFDFD"/>
<path d="M25.9782 60.5H0V0.5H25.9782V60.5Z" fill="#FDFDFD"/>
<path d="M11.2689 44.9191L14.09 45.8161V44.0222L11.2689 44.9191ZM19.2679 36.0707V42.5045L17.9433 42.9702V46.8683L19.2679 47.334V53.7676L6.71021 48.8001V41.0555L19.2679 36.0707Z" fill="#1C1C1C"/>
<path d="M11.1657 22.238V29.931H12.1805V22.4795H16.034V29.931H19.2679V36.0713H6.71021V22.238H11.1657Z" fill="#1C1C1C"/>
<path d="M11.1657 7.23217V14.9249H12.1805V7.4736H16.034V14.9249H19.2679V21.0654H6.71021V7.23217H11.1657Z" fill="#1C1C1C"/>
</svg>
