<svg width="24" height="24" viewBox="0 0 24 24" fill="none" xmlns="http://www.w3.org/2000/svg">
<rect width="24" height="24" rx="12" fill="#FDFDFD"/>
<path d="M13.3372 13.8021C12.9391 14.0674 12.4767 14.2077 12 14.2077C11.5233 14.2077 11.0609 14.0674 10.6629 13.8021L4.10653 9.43103C4.07034 9.40683 4.03481 9.38165 4 9.3555V16.5179C4 17.3391 4.66641 17.9908 5.47291 17.9908H18.5271C19.3482 17.9908 20 17.3244 20 16.5179V9.35547C19.9651 9.38168 19.9295 9.40692 19.8932 9.43116L13.3372 13.8021Z" fill="#1C1C1C"/>
<path d="M4.62656 8.65131L11.1829 13.0224C11.4311 13.1878 11.7155 13.2706 12 13.2706C12.2844 13.2706 12.5689 13.1878 12.8171 13.0224L19.3734 8.65131C19.7658 8.38991 20 7.95241 20 7.48022C20 6.66831 19.3395 6.00781 18.5276 6.00781H5.47241C4.66053 6.00784 4 6.66834 4 7.481C3.99976 7.71263 4.05684 7.94071 4.16617 8.14492C4.2755 8.34912 4.43366 8.52309 4.62656 8.65131Z" fill="#1C1C1C"/>
</svg>
