<svg width="24" height="24" viewBox="0 0 24 24" fill="none" xmlns="http://www.w3.org/2000/svg">
<path d="M19.0312 9.89062H16.2188C15.8304 9.89062 15.5156 10.2054 15.5156 10.5938C15.5156 10.9821 15.8304 11.2969 16.2188 11.2969H16.6494L14.8125 16.8078L12.9756 11.2969H13.4062C13.7946 11.2969 14.1094 10.9821 14.1094 10.5938C14.1094 10.2054 13.7946 9.89062 13.4062 9.89062H10.5938C10.2054 9.89062 9.89062 10.2054 9.89062 10.5938C9.89062 10.9821 10.2054 11.2969 10.5938 11.2969H11.0244L9.1875 16.8078L7.35056 11.2969H7.78125C8.16956 11.2969 8.48438 10.9821 8.48438 10.5938C8.48438 10.2054 8.16956 9.89062 7.78125 9.89062H4.96875C4.58044 9.89062 4.26562 10.2054 4.26562 10.5938C4.26562 10.9821 4.58044 11.2969 4.96875 11.2969H5.86819L8.52042 19.2536C8.56708 19.3936 8.65662 19.5154 8.77634 19.6017C8.89606 19.688 9.0399 19.7344 9.18748 19.7344C9.33506 19.7344 9.4789 19.688 9.59862 19.6017C9.71834 19.5154 9.80787 19.3936 9.85453 19.2536L12 12.8172L14.1455 19.2536C14.1921 19.3936 14.2816 19.5154 14.4014 19.6017C14.5211 19.688 14.6649 19.7344 14.8125 19.7344C14.9601 19.7344 15.1039 19.688 15.2236 19.6017C15.3434 19.5154 15.4329 19.3936 15.4795 19.2536L18.1318 11.2969H19.0312C19.4196 11.2969 19.7344 10.9821 19.7344 10.5938C19.7344 10.2054 19.4196 9.89062 19.0312 9.89062Z" fill="#AEB2B7"/>
<path d="M21.8906 0H2.10938C0.946266 0 0 0.946266 0 2.10938V21.8906C0 23.0537 0.946266 24 2.10938 24H21.8906C23.0537 24 24 23.0537 24 21.8906V2.10938C24 0.946266 23.0537 0 21.8906 0ZM1.40625 2.10938C1.40625 1.72167 1.72167 1.40625 2.10938 1.40625H15.5156V5.625H1.40625V2.10938ZM22.5938 21.8906C22.5938 22.2783 22.2783 22.5938 21.8906 22.5938H2.10938C1.72167 22.5938 1.40625 22.2783 1.40625 21.8906V7.03125H22.5938V21.8906ZM22.5938 5.625H16.9219V1.40625H21.8906C22.2783 1.40625 22.5938 1.72167 22.5938 2.10938V5.625Z" fill="#AEB2B7"/>
<path d="M4.96875 2.8125H3.51562C3.12731 2.8125 2.8125 3.12731 2.8125 3.51562C2.8125 3.90394 3.12731 4.21875 3.51562 4.21875H4.96875C5.35706 4.21875 5.67188 3.90394 5.67188 3.51562C5.67188 3.12731 5.35706 2.8125 4.96875 2.8125ZM9.1875 2.8125H7.78125C7.39294 2.8125 7.07812 3.12731 7.07812 3.51562C7.07812 3.90394 7.39294 4.21875 7.78125 4.21875H9.1875C9.57581 4.21875 9.89062 3.90394 9.89062 3.51562C9.89062 3.12731 9.57581 2.8125 9.1875 2.8125ZM13.4062 2.8125H12C11.6117 2.8125 11.2969 3.12731 11.2969 3.51562C11.2969 3.90394 11.6117 4.21875 12 4.21875H13.4062C13.7946 4.21875 14.1094 3.90394 14.1094 3.51562C14.1094 3.12731 13.7946 2.8125 13.4062 2.8125Z" fill="#AEB2B7"/>
</svg>
