<svg width="24" height="24" viewBox="0 0 24 24" fill="none" xmlns="http://www.w3.org/2000/svg">
<path d="M19.5 3.75H18.375V3C18.375 2.55 18.075 2.25 17.625 2.25C17.175 2.25 16.875 2.55 16.875 3V3.75H14.625V3C14.625 2.55 14.325 2.25 13.875 2.25C13.425 2.25 13.125 2.55 13.125 3V3.75H10.875V3C10.875 2.55 10.575 2.25 10.125 2.25C9.675 2.25 9.375 2.55 9.375 3V3.75H7.125V3C7.125 2.55 6.825 2.25 6.375 2.25C5.925 2.25 5.625 2.55 5.625 3V3.75H4.5C2.475 3.75 0.75 5.4 0.75 7.5V18C0.75 20.025 2.4 21.75 4.5 21.75H19.5C21.525 21.75 23.25 20.1 23.25 18V7.425C23.25 5.4 21.6 3.75 19.5 3.75ZM2.25 7.425C2.25 6.225 3.225 5.175 4.5 5.175H5.625V6C5.625 6.45 5.925 6.75 6.375 6.75C6.825 6.75 7.125 6.45 7.125 6V5.25H9.375V6C9.375 6.45 9.675 6.75 10.125 6.75C10.575 6.75 10.875 6.45 10.875 6V5.25H13.125V6C13.125 6.45 13.425 6.75 13.875 6.75C14.325 6.75 14.625 6.45 14.625 6V5.25H16.875V6C16.875 6.45 17.175 6.75 17.625 6.75C18.075 6.75 18.375 6.45 18.375 6V5.25H19.5C20.7 5.25 21.75 6.225 21.75 7.5V8.325H2.25V7.425ZM19.5 20.25H4.5C3.3 20.25 2.25 19.275 2.25 18V9.825H21.75V18C21.75 19.2 20.775 20.25 19.5 20.25Z" fill="#AEB2B7"/>
<path d="M10.2 12.2998H10.05C9.60005 12.2998 9.30005 12.5998 9.30005 13.0498V13.1998C9.30005 13.6498 9.60005 13.9498 10.05 13.9498H10.2C10.65 13.9498 10.95 13.6498 10.95 13.1998V13.0498C10.95 12.5998 10.575 12.2998 10.2 12.2998ZM10.2 16.0498H10.05C9.60005 16.0498 9.30005 16.3498 9.30005 16.7998V16.9498C9.30005 17.3998 9.60005 17.6998 10.05 17.6998H10.2C10.65 17.6998 10.95 17.3998 10.95 16.9498V16.7998C10.95 16.3498 10.575 16.0498 10.2 16.0498ZM6.45005 12.2998H6.30005C5.85005 12.2998 5.55005 12.5998 5.55005 13.0498V13.1998C5.55005 13.6498 5.85005 13.9498 6.30005 13.9498H6.45005C6.90005 13.9498 7.20005 13.6498 7.20005 13.1998V13.0498C7.20005 12.5998 6.90005 12.2998 6.45005 12.2998ZM6.45005 16.0498H6.30005C5.85005 16.0498 5.55005 16.3498 5.55005 16.7998V16.9498C5.55005 17.3998 5.85005 17.6998 6.30005 17.6998H6.45005C6.90005 17.6998 7.20005 17.3998 7.20005 16.9498V16.7998C7.20005 16.3498 6.90005 16.0498 6.45005 16.0498ZM13.95 12.2998H13.8C13.35 12.2998 13.05 12.5998 13.05 13.0498V13.1998C13.05 13.6498 13.35 13.9498 13.8 13.9498H13.95C14.4 13.9498 14.7 13.6498 14.7 13.1998V13.0498C14.7 12.5998 14.325 12.2998 13.95 12.2998ZM13.95 16.0498H13.8C13.35 16.0498 13.05 16.3498 13.05 16.7998V16.9498C13.05 17.3998 13.35 17.6998 13.8 17.6998H13.95C14.4 17.6998 14.7 17.3998 14.7 16.9498V16.7998C14.7 16.3498 14.325 16.0498 13.95 16.0498ZM17.7 12.2998H17.55C17.1 12.2998 16.8 12.5998 16.8 13.0498V13.1998C16.8 13.6498 17.1 13.9498 17.55 13.9498H17.7C18.15 13.9498 18.45 13.6498 18.45 13.1998V13.0498C18.45 12.5998 18.15 12.2998 17.7 12.2998ZM17.7 16.0498H17.55C17.1 16.0498 16.8 16.3498 16.8 16.7998V16.9498C16.8 17.3998 17.1 17.6998 17.55 17.6998H17.7C18.15 17.6998 18.45 17.3998 18.45 16.9498V16.7998C18.45 16.3498 18.15 16.0498 17.7 16.0498Z" fill="#AEB2B7"/>
</svg>
