<svg width="24" height="24" viewBox="0 0 24 24" fill="none" xmlns="http://www.w3.org/2000/svg">
<path d="M11.9995 7.90039C14.2637 7.90039 16.0991 9.73578 16.0991 12C16.0991 14.2644 14.2637 16.0996 11.9995 16.0996C9.73522 16.0996 7.89995 14.2643 7.8999 12C7.8999 9.73587 9.73517 7.90045 11.9995 7.90039Z" stroke="#AEB2B7" stroke-width="1.4"/>
<path d="M9.59973 18.6992H14.3995C16.6637 18.6992 18.4991 20.5346 18.4991 22.7988V23.2988H5.50012V22.7988C5.50012 20.5346 7.33556 18.6992 9.59973 18.6992Z" stroke="#AEB2B7" stroke-width="1.4"/>
<path d="M4.70136 14.8818C4.23992 13.8826 4.00086 12.7989 4 11.7025C4.00504 7.38539 7.58372 3.88677 12 3.88184C16.4161 3.88677 19.995 7.38539 20 11.7025C19.9991 12.7989 19.7601 13.8826 19.2986 14.8818" stroke="#AEB2B7" stroke-width="1.4" stroke-linecap="round"/>
<path d="M2.91918 17.8568C1.66419 16.0451 0.994991 13.8996 1.00003 11.704C1.01378 5.71358 5.93858 0.868274 11.9996 0.881864C14.2209 0.877015 16.3915 1.53845 18.2244 2.77875C23.2255 6.16316 24.504 12.9138 21.0799 17.8568C21.0744 17.8653 21.0687 17.8737 21.0627 17.8818" stroke="#AEB2B7" stroke-width="1.4" stroke-linecap="round"/>
</svg>
