<svg width="24" height="20" viewBox="0 0 24 20" fill="none" xmlns="http://www.w3.org/2000/svg">
<path d="M21 0.25H3C1.725 0.25 0.75 1.225 0.75 2.5V14.5C0.75 15.775 1.725 16.75 3 16.75H11.25V18.25H3C2.55 18.25 2.25 18.55 2.25 19C2.25 19.45 2.55 19.75 3 19.75H21C21.45 19.75 21.75 19.45 21.75 19C21.75 18.55 21.45 18.25 21 18.25H12.75V16.75H21C22.275 16.75 23.25 15.775 23.25 14.5V2.5C23.25 1.225 22.275 0.25 21 0.25ZM3 1.75H21C21.45 1.75 21.75 2.05 21.75 2.5V13H2.25V2.5C2.25 2.05 2.55 1.75 3 1.75ZM21 15.25H3C2.55 15.25 2.25 14.95 2.25 14.5H21.75C21.75 14.95 21.45 15.25 21 15.25Z" fill="#AEB2B7"/>
<path d="M6.14995 8.95C6.29995 9.1 8.77495 12.25 12 12.25C15.225 12.25 17.7 9.1 17.85 8.95C18.075 8.65 18.075 8.275 17.85 8.05C17.775 7.975 16.875 6.775 15.375 5.875C15.15 5.725 14.925 5.575 14.625 5.425C14.55 5.425 14.55 5.35 14.475 5.35C14.25 5.2 13.95 5.125 13.725 5.05H13.65C13.425 4.975 13.2 4.9 12.9 4.9H12.75C12.525 4.75 12.3 4.75 12 4.75C11.7 4.75 11.475 4.75 11.25 4.825H11.1C10.875 4.9 10.65 4.9 10.35 4.975H10.275C10.05 5.05 9.74995 5.2 9.52495 5.275C9.44995 5.275 9.44995 5.35 9.37495 5.35C9.14995 5.5 8.84995 5.65 8.62495 5.8C7.19995 6.7 6.22495 7.9 6.14995 7.975C5.92495 8.275 5.92495 8.725 6.14995 8.95ZM9.97495 6.85C10.05 6.775 10.125 6.775 10.275 6.7C10.35 6.625 10.5 6.625 10.575 6.55C10.65 6.55 10.725 6.475 10.8 6.475C10.95 6.4 11.025 6.4 11.175 6.4C11.25 6.4 11.325 6.4 11.4 6.325C11.55 6.325 11.7 6.25 11.925 6.25H12.15C12.3 6.25 12.525 6.25 12.675 6.325C12.75 6.325 12.825 6.325 12.9 6.4C13.05 6.4 13.2 6.475 13.275 6.475C13.35 6.475 13.425 6.55 13.5 6.55C13.65 6.625 13.725 6.625 13.8 6.7C13.875 6.775 13.95 6.775 14.1 6.85C14.1 6.85 14.175 6.85 14.175 6.925C13.875 7.825 13.05 8.5 12.075 8.5C11.025 8.425 10.125 7.75 9.97495 6.85C9.89995 6.85 9.89995 6.85 9.97495 6.85ZM8.62495 7.75C9.22495 9.1 10.5 10 12 10C13.5 10 14.775 9.1 15.375 7.75C15.75 8.05 16.05 8.35 16.2 8.5C15.45 9.25 13.8 10.75 11.925 10.75C10.05 10.75 8.39995 9.25 7.64995 8.5C7.94995 8.275 8.24995 7.975 8.62495 7.75Z" fill="#AEB2B7"/>
<path d="M12 3.9248C12.4142 3.9248 12.75 3.58902 12.75 3.1748C12.75 2.76059 12.4142 2.4248 12 2.4248C11.5858 2.4248 11.25 2.76059 11.25 3.1748C11.25 3.58902 11.5858 3.9248 12 3.9248Z" fill="#AEB2B7"/>
<path d="M15.225 4.59961C15.6392 4.59961 15.975 4.26382 15.975 3.84961C15.975 3.4354 15.6392 3.09961 15.225 3.09961C14.8108 3.09961 14.475 3.4354 14.475 3.84961C14.475 4.26382 14.8108 4.59961 15.225 4.59961Z" fill="#AEB2B7"/>
<path d="M18 6.25C18.4142 6.25 18.75 5.91421 18.75 5.5C18.75 5.08579 18.4142 4.75 18 4.75C17.5858 4.75 17.25 5.08579 17.25 5.5C17.25 5.91421 17.5858 6.25 18 6.25Z" fill="#AEB2B7"/>
<path d="M8.77502 4.59961C9.18924 4.59961 9.52502 4.26382 9.52502 3.84961C9.52502 3.4354 9.18924 3.09961 8.77502 3.09961C8.36081 3.09961 8.02502 3.4354 8.02502 3.84961C8.02502 4.26382 8.36081 4.59961 8.77502 4.59961Z" fill="#AEB2B7"/>
<path d="M6 6.25C6.41421 6.25 6.75 5.91421 6.75 5.5C6.75 5.08579 6.41421 4.75 6 4.75C5.58579 4.75 5.25 5.08579 5.25 5.5C5.25 5.91421 5.58579 6.25 6 6.25Z" fill="#AEB2B7"/>
</svg>
