<svg width="20" height="24" viewBox="0 0 20 24" fill="none" xmlns="http://www.w3.org/2000/svg">
<path d="M18.775 0.75H7.30005C3.55005 0.75 0.550049 3.75 0.550049 7.5V22.5C0.550049 22.95 0.850049 23.25 1.30005 23.25H18.775C19.225 23.25 19.525 22.95 19.525 22.5V1.5C19.525 1.05 19.15 0.75 18.775 0.75ZM1.97505 7.5C1.97505 4.575 4.30005 2.25 7.22505 2.25H7.45005V7.725H1.97505V7.5ZM18.025 21.75H1.97505V9.225H8.20005C8.65005 9.225 8.95005 8.925 8.95005 8.475V2.25H17.9501V21.75H18.025Z" fill="#FE6E00"/>
<path d="M15.25 11.2496H4.75C4.3 11.2496 4 11.5496 4 11.9996C4 12.4496 4.3 12.7496 4.75 12.7496H15.25C15.7 12.7496 16 12.4496 16 11.9996C16 11.5496 15.7 11.2496 15.25 11.2496ZM11.725 9.22461H15.25C15.7 9.22461 16 8.92461 16 8.47461C16 8.02461 15.7 7.72461 15.25 7.72461H11.725C11.275 7.72461 10.975 8.02461 10.975 8.47461C10.975 8.92461 11.35 9.22461 11.725 9.22461ZM15.25 14.7746H4.75C4.3 14.7746 4 15.0746 4 15.5246C4 15.9746 4.3 16.2746 4.75 16.2746H15.25C15.7 16.2746 16 15.9746 16 15.5246C16 15.0746 15.7 14.7746 15.25 14.7746ZM15.25 18.2246H4.75C4.3 18.2246 4 18.5246 4 18.9746C4 19.4246 4.3 19.7246 4.75 19.7246H15.25C15.7 19.7246 16 19.4246 16 18.9746C16 18.5246 15.7 18.2246 15.25 18.2246Z" fill="#FE6E00"/>
</svg>
