<svg width="20" height="24" viewBox="0 0 20 24" fill="none" xmlns="http://www.w3.org/2000/svg">
<path d="M19.2696 2.09475H5.53339C5.22074 0.891234 4.12513 0 2.82514 0C1.28235 0 0.0272217 1.25513 0.0272217 2.79787V21.1414C0.0272217 22.7176 1.30958 24 2.88585 24H15.5151C15.9034 24 16.2182 23.6851 16.2182 23.2968V21.1387H19.2696C19.6579 21.1387 19.9727 20.8238 19.9727 20.4355V2.79787C19.9727 2.40956 19.6579 2.09475 19.2696 2.09475ZM2.82514 1.40625C3.57814 1.40625 4.19286 2.00752 4.21564 2.75508C4.2148 2.76933 4.21349 2.78344 4.21349 2.79792V18.6103C3.80404 18.3951 3.34843 18.2827 2.88589 18.2828C2.37479 18.2823 1.87303 18.4197 1.43352 18.6806V2.79787C1.43347 2.03053 2.05775 1.40625 2.82514 1.40625ZM14.812 22.5938H2.88585C2.08499 22.5938 1.43347 21.9422 1.43347 21.1414C1.43347 20.3406 2.08499 19.689 2.88585 19.689C3.48163 19.689 4.01422 20.0534 4.23374 20.6019C4.30808 20.9104 4.58521 21.14 4.91657 21.14C4.93068 21.14 4.94469 21.1395 4.95857 21.1388H14.8119V22.5938H14.812ZM18.5665 19.7325H5.62297V3.501H18.5665V19.7325Z" fill="#AEB2B7"/>
<path d="M8.39697 15.1334H15.7893C16.1777 15.1334 16.4925 14.8186 16.4925 14.4303C16.4925 14.0419 16.1777 13.7271 15.7893 13.7271H8.39697C8.00866 13.7271 7.69385 14.0419 7.69385 14.4303C7.69385 14.8186 8.00866 15.1334 8.39697 15.1334ZM15.7893 16.5398H8.39697C8.00866 16.5398 7.69385 16.8546 7.69385 17.2429C7.69385 17.6312 8.00866 17.946 8.39697 17.946H15.7893C16.1777 17.946 16.4925 17.6312 16.4925 17.2429C16.4925 16.8546 16.1777 16.5398 15.7893 16.5398ZM8.39697 9.508H15.7893C16.1777 9.508 16.4925 9.19319 16.4925 8.80487V5.99219C16.4925 5.60387 16.1777 5.28906 15.7893 5.28906H8.39697C8.00866 5.28906 7.69385 5.60387 7.69385 5.99219V8.80487C7.69385 9.19319 8.00866 9.508 8.39697 9.508ZM9.1001 6.69531H15.0862V8.10175H9.1001V6.69531ZM8.39697 12.3207H15.7893C16.1777 12.3207 16.4925 12.0059 16.4925 11.6176C16.4925 11.2292 16.1777 10.9144 15.7893 10.9144H8.39697C8.00866 10.9144 7.69385 11.2292 7.69385 11.6176C7.69385 12.0059 8.00866 12.3207 8.39697 12.3207Z" fill="#AEB2B7"/>
</svg>
