<svg width="0" height="0" style='display: none;'>
  <symbol xmlns="http://www.w3.org/2000/svg" viewBox="0 0 20 24" id="menu-1" fill="currentColor">
    <path d="M18.775 0.75H7.30005C3.55005 0.75 0.550049 3.75 0.550049 7.5V22.5C0.550049 22.95 0.850049 23.25 1.30005 23.25H18.775C19.225 23.25 19.525 22.95 19.525 22.5V1.5C19.525 1.05 19.15 0.75 18.775 0.75ZM1.97505 7.5C1.97505 4.575 4.30005 2.25 7.22505 2.25H7.45005V7.725H1.97505V7.5ZM18.025 21.75H1.97505V9.225H8.20005C8.65005 9.225 8.95005 8.925 8.95005 8.475V2.25H17.9501V21.75H18.025Z"></path>
    <path d="M15.25 11.2496H4.75C4.3 11.2496 4 11.5496 4 11.9996C4 12.4496 4.3 12.7496 4.75 12.7496H15.25C15.7 12.7496 16 12.4496 16 11.9996C16 11.5496 15.7 11.2496 15.25 11.2496ZM11.725 9.22461H15.25C15.7 9.22461 16 8.92461 16 8.47461C16 8.02461 15.7 7.72461 15.25 7.72461H11.725C11.275 7.72461 10.975 8.02461 10.975 8.47461C10.975 8.92461 11.35 9.22461 11.725 9.22461ZM15.25 14.7746H4.75C4.3 14.7746 4 15.0746 4 15.5246C4 15.9746 4.3 16.2746 4.75 16.2746H15.25C15.7 16.2746 16 15.9746 16 15.5246C16 15.0746 15.7 14.7746 15.25 14.7746ZM15.25 18.2246H4.75C4.3 18.2246 4 18.5246 4 18.9746C4 19.4246 4.3 19.7246 4.75 19.7246H15.25C15.7 19.7246 16 19.4246 16 18.9746C16 18.5246 15.7 18.2246 15.25 18.2246Z"></path>
  </symbol>
  <symbol fill="currentColor" xmlns="http://www.w3.org/2000/svg" viewBox="0 0 24 24" id="menu-2">
    <path d="M18.9085 1H5.09148C2.83292 1.00262 1.00262 2.83292 1 5.09148V18.9085C1.00262 21.1671 2.83292 22.9974 5.09148 23H18.9085C21.1671 22.9974 22.9974 21.1671 23 18.9085V5.09148C22.9974 2.83292 21.1671 1.00262 18.9085 1ZM21.4813 5.09148V6.41797H17.6339L14.7564 2.51873H18.9086C20.3288 2.52032 21.4797 3.67124 21.4813 5.09148ZM12.8689 2.51873L15.7464 6.41797H11.1311L8.25364 2.51873H12.8689ZM2.51873 5.09148C2.52032 3.67128 3.67124 2.52036 5.09148 2.51873H6.36615L9.2436 6.41797H2.51873V5.09148ZM18.9085 21.4813H5.09148C3.67128 21.4797 2.52036 20.3288 2.51873 18.9085V7.93675H21.4813V18.9085C21.4796 20.3287 20.3287 21.4796 18.9085 21.4813Z" ></path>
    <path d="M16.0516 14.0509L10.044 10.5823C9.68075 10.3726 9.21634 10.4971 9.00666 10.8603C8.94 10.9757 8.90491 11.1067 8.90491 11.24V18.1771C8.90491 18.5965 9.24488 18.9365 9.66425 18.9365C9.79754 18.9365 9.92851 18.9014 10.044 18.8347L16.0516 15.3662C16.4149 15.1565 16.5393 14.6921 16.3296 14.3289C16.263 14.2134 16.1671 14.1175 16.0516 14.0509ZM10.4236 16.8618V12.5552L14.1532 14.7085L10.4236 16.8618Z" ></path>
  </symbol>
  <symbol fill="currentColor" xmlns="http://www.w3.org/2000/svg" viewBox="0 0 24 24" id="menu-3">
    <path d="M19.5 3.75H18.375V3C18.375 2.55 18.075 2.25 17.625 2.25C17.175 2.25 16.875 2.55 16.875 3V3.75H14.625V3C14.625 2.55 14.325 2.25 13.875 2.25C13.425 2.25 13.125 2.55 13.125 3V3.75H10.875V3C10.875 2.55 10.575 2.25 10.125 2.25C9.675 2.25 9.375 2.55 9.375 3V3.75H7.125V3C7.125 2.55 6.825 2.25 6.375 2.25C5.925 2.25 5.625 2.55 5.625 3V3.75H4.5C2.475 3.75 0.75 5.4 0.75 7.5V18C0.75 20.025 2.4 21.75 4.5 21.75H19.5C21.525 21.75 23.25 20.1 23.25 18V7.425C23.25 5.4 21.6 3.75 19.5 3.75ZM2.25 7.425C2.25 6.225 3.225 5.175 4.5 5.175H5.625V6C5.625 6.45 5.925 6.75 6.375 6.75C6.825 6.75 7.125 6.45 7.125 6V5.25H9.375V6C9.375 6.45 9.675 6.75 10.125 6.75C10.575 6.75 10.875 6.45 10.875 6V5.25H13.125V6C13.125 6.45 13.425 6.75 13.875 6.75C14.325 6.75 14.625 6.45 14.625 6V5.25H16.875V6C16.875 6.45 17.175 6.75 17.625 6.75C18.075 6.75 18.375 6.45 18.375 6V5.25H19.5C20.7 5.25 21.75 6.225 21.75 7.5V8.325H2.25V7.425ZM19.5 20.25H4.5C3.3 20.25 2.25 19.275 2.25 18V9.825H21.75V18C21.75 19.2 20.775 20.25 19.5 20.25Z" ></path>
    <path d="M10.2 12.2998H10.05C9.60005 12.2998 9.30005 12.5998 9.30005 13.0498V13.1998C9.30005 13.6498 9.60005 13.9498 10.05 13.9498H10.2C10.65 13.9498 10.95 13.6498 10.95 13.1998V13.0498C10.95 12.5998 10.575 12.2998 10.2 12.2998ZM10.2 16.0498H10.05C9.60005 16.0498 9.30005 16.3498 9.30005 16.7998V16.9498C9.30005 17.3998 9.60005 17.6998 10.05 17.6998H10.2C10.65 17.6998 10.95 17.3998 10.95 16.9498V16.7998C10.95 16.3498 10.575 16.0498 10.2 16.0498ZM6.45005 12.2998H6.30005C5.85005 12.2998 5.55005 12.5998 5.55005 13.0498V13.1998C5.55005 13.6498 5.85005 13.9498 6.30005 13.9498H6.45005C6.90005 13.9498 7.20005 13.6498 7.20005 13.1998V13.0498C7.20005 12.5998 6.90005 12.2998 6.45005 12.2998ZM6.45005 16.0498H6.30005C5.85005 16.0498 5.55005 16.3498 5.55005 16.7998V16.9498C5.55005 17.3998 5.85005 17.6998 6.30005 17.6998H6.45005C6.90005 17.6998 7.20005 17.3998 7.20005 16.9498V16.7998C7.20005 16.3498 6.90005 16.0498 6.45005 16.0498ZM13.95 12.2998H13.8C13.35 12.2998 13.05 12.5998 13.05 13.0498V13.1998C13.05 13.6498 13.35 13.9498 13.8 13.9498H13.95C14.4 13.9498 14.7 13.6498 14.7 13.1998V13.0498C14.7 12.5998 14.325 12.2998 13.95 12.2998ZM13.95 16.0498H13.8C13.35 16.0498 13.05 16.3498 13.05 16.7998V16.9498C13.05 17.3998 13.35 17.6998 13.8 17.6998H13.95C14.4 17.6998 14.7 17.3998 14.7 16.9498V16.7998C14.7 16.3498 14.325 16.0498 13.95 16.0498ZM17.7 12.2998H17.55C17.1 12.2998 16.8 12.5998 16.8 13.0498V13.1998C16.8 13.6498 17.1 13.9498 17.55 13.9498H17.7C18.15 13.9498 18.45 13.6498 18.45 13.1998V13.0498C18.45 12.5998 18.15 12.2998 17.7 12.2998ZM17.7 16.0498H17.55C17.1 16.0498 16.8 16.3498 16.8 16.7998V16.9498C16.8 17.3998 17.1 17.6998 17.55 17.6998H17.7C18.15 17.6998 18.45 17.3998 18.45 16.9498V16.7998C18.45 16.3498 18.15 16.0498 17.7 16.0498Z" ></path>
  </symbol>
  <symbol fill="currentColor" xmlns="http://www.w3.org/2000/svg" viewBox="0 0 24 24" id="menu-4">
    <g clip-path="url(#clip0_191_9621)">
      <path d="M11.025 12.9751C11.175 13.1251 11.4 13.2001 11.55 13.2001C11.7 13.2001 11.925 13.1251 12.075 12.9751L16.875 8.17511H19.05C19.275 8.17511 19.425 8.10011 19.575 7.95011L22.95 4.57511C23.25 4.35011 23.325 3.97511 23.175 3.75011C23.025 3.45011 22.8 3.30011 22.5 3.30011H20.7V1.50011C20.7 1.20011 20.55 0.900109 20.25 0.825109C19.95 0.675109 19.65 0.750109 19.425 0.975109L17.175 3.22511C15.45 2.17511 13.5 1.65011 11.55 1.65011C5.625 1.57511 0.75 6.45011 0.75 12.4501C0.75 18.4501 5.625 23.2501 11.55 23.2501C17.55 23.2501 22.35 18.3751 22.35 12.4501C22.35 11.2501 22.125 9.97511 21.75 8.85011C21.6 8.47511 21.15 8.25011 20.775 8.40011C20.4 8.55011 20.175 9.00011 20.325 9.37511C20.7 10.3501 20.85 11.4001 20.85 12.4501C20.85 17.6251 16.65 21.7501 11.55 21.7501C6.45 21.7501 2.25 17.5501 2.25 12.4501C2.25 7.35011 6.45 3.07511 11.55 3.07511C13.2 3.07511 14.7 3.45011 16.125 4.27511L16.05 4.35011C15.9 4.50011 15.825 4.65011 15.825 4.87511V6.30011C14.55 5.40011 13.05 4.95011 11.55 4.95011C7.425 4.95011 4.05 8.32511 4.05 12.4501C4.05 16.5751 7.425 19.9501 11.55 19.9501C15.675 19.9501 19.05 16.5751 19.05 12.4501C19.05 11.4751 18.9 10.5751 18.525 9.67511C18.375 9.30011 17.925 9.07511 17.55 9.22511C17.175 9.37511 16.95 9.82511 17.1 10.2001C17.4 10.9501 17.55 11.7001 17.55 12.4501C17.55 15.7501 14.85 18.4501 11.55 18.4501C8.25 18.4501 5.55 15.7501 5.55 12.4501C5.55 9.15011 8.25 6.45011 11.55 6.45011C12.9 6.45011 14.175 6.90011 15.225 7.72511L13.875 9.07511C13.2 8.62511 12.375 8.32511 11.55 8.32511C9.3 8.32511 7.425 10.2001 7.425 12.4501C7.425 14.7001 9.3 16.5751 11.55 16.5751C13.8 16.5751 15.675 14.7001 15.675 12.4501C15.675 12.0001 15.375 11.7001 14.925 11.7001C14.475 11.7001 14.175 12.0001 14.175 12.4501C14.175 13.8751 12.975 15.0751 11.55 15.0751C10.125 15.0751 9 13.8751 9 12.4501C9 11.0251 10.2 9.82511 11.625 9.82511C12.075 9.82511 12.45 9.90011 12.825 10.1251L11.025 11.9251C10.725 12.1501 10.725 12.6751 11.025 12.9751ZM19.95 4.80011H20.625L18.75 6.67511H17.325V5.17511L19.2 3.30011V3.97511C19.2 4.42511 19.575 4.80011 19.95 4.80011Z" ></path>
    </g>
    <defs>
      <clipPath id="clip0_191_9621">
        <rect width="24" height="24" fill="white"></rect>
      </clipPath>
    </defs>
  </symbol>
  <symbol fill="currentColor" xmlns="http://www.w3.org/2000/svg" viewBox="0 0 24 24" id="menu-11">
    <path d="M18.7355 3.56348C18.8685 3.56102 19.0468 3.57671 19.2345 3.62402C19.3954 3.66461 19.6086 3.73942 19.8087 3.88574L19.8937 3.95312L20.0245 4.08203C20.3005 4.38985 20.367 4.7402 20.3917 4.89258C20.4201 5.06813 20.4538 5.4388 20.4249 5.75977C20.1796 8.48174 19.1278 15.0256 18.5958 18.0283C18.4725 18.7245 18.275 19.2783 17.9865 19.6836C17.6823 20.1109 17.2681 20.378 16.7863 20.4248C16.0701 20.4943 15.4788 20.2336 15.0031 19.9385C14.7669 19.792 14.5398 19.6243 14.3312 19.4678C14.1146 19.3053 13.9178 19.1549 13.7081 19.0098C12.9946 18.5159 12.4357 18.1153 11.8868 17.7207C11.3381 17.3262 10.8 16.9375 10.1193 16.4639C9.67839 16.1571 9.31654 15.8188 9.11633 15.4141C8.89099 14.9584 8.91124 14.5049 9.07629 14.1074C9.221 13.7591 9.47147 13.4669 9.67786 13.2451C9.78631 13.1286 9.90415 13.0101 10.0118 12.9004C10.1229 12.7872 10.229 12.6784 10.3312 12.5664L11.006 11.8965C10.3004 12.3967 9.50888 12.9577 8.63293 13.582C7.92005 14.0988 7.16877 14.4314 6.40344 14.4141C6.01406 14.4052 5.51463 14.2972 5.05969 14.1768C4.58514 14.0511 4.08485 13.8918 3.66321 13.7471C3.22414 13.5964 2.67087 13.4321 2.28625 13.2354C2.08231 13.131 1.83749 12.9774 1.65247 12.7373C1.4451 12.4682 1.3494 12.1377 1.39172 11.7812C1.44705 11.3155 1.75485 10.9891 2.01868 10.7822C2.29245 10.5676 2.64682 10.3805 3.047 10.2109C7.73125 8.05613 10.862 6.63218 12.4327 5.94238C14.6614 4.96363 16.0269 4.38058 16.9132 4.04102C17.7844 3.70723 18.2817 3.57192 18.7355 3.56348Z" stroke="#AEB2B7" stroke-width="1.6"/>
  </symbol>
  <symbol fill="currentColor" xmlns="http://www.w3.org/2000/svg" viewBox="0 0 24 20" id="menu-5">
    <path d="M21 0.25H3C1.725 0.25 0.75 1.225 0.75 2.5V14.5C0.75 15.775 1.725 16.75 3 16.75H11.25V18.25H3C2.55 18.25 2.25 18.55 2.25 19C2.25 19.45 2.55 19.75 3 19.75H21C21.45 19.75 21.75 19.45 21.75 19C21.75 18.55 21.45 18.25 21 18.25H12.75V16.75H21C22.275 16.75 23.25 15.775 23.25 14.5V2.5C23.25 1.225 22.275 0.25 21 0.25ZM3 1.75H21C21.45 1.75 21.75 2.05 21.75 2.5V13H2.25V2.5C2.25 2.05 2.55 1.75 3 1.75ZM21 15.25H3C2.55 15.25 2.25 14.95 2.25 14.5H21.75C21.75 14.95 21.45 15.25 21 15.25Z" ></path>
    <path d="M6.14995 8.95C6.29995 9.1 8.77495 12.25 12 12.25C15.225 12.25 17.7 9.1 17.85 8.95C18.075 8.65 18.075 8.275 17.85 8.05C17.775 7.975 16.875 6.775 15.375 5.875C15.15 5.725 14.925 5.575 14.625 5.425C14.55 5.425 14.55 5.35 14.475 5.35C14.25 5.2 13.95 5.125 13.725 5.05H13.65C13.425 4.975 13.2 4.9 12.9 4.9H12.75C12.525 4.75 12.3 4.75 12 4.75C11.7 4.75 11.475 4.75 11.25 4.825H11.1C10.875 4.9 10.65 4.9 10.35 4.975H10.275C10.05 5.05 9.74995 5.2 9.52495 5.275C9.44995 5.275 9.44995 5.35 9.37495 5.35C9.14995 5.5 8.84995 5.65 8.62495 5.8C7.19995 6.7 6.22495 7.9 6.14995 7.975C5.92495 8.275 5.92495 8.725 6.14995 8.95ZM9.97495 6.85C10.05 6.775 10.125 6.775 10.275 6.7C10.35 6.625 10.5 6.625 10.575 6.55C10.65 6.55 10.725 6.475 10.8 6.475C10.95 6.4 11.025 6.4 11.175 6.4C11.25 6.4 11.325 6.4 11.4 6.325C11.55 6.325 11.7 6.25 11.925 6.25H12.15C12.3 6.25 12.525 6.25 12.675 6.325C12.75 6.325 12.825 6.325 12.9 6.4C13.05 6.4 13.2 6.475 13.275 6.475C13.35 6.475 13.425 6.55 13.5 6.55C13.65 6.625 13.725 6.625 13.8 6.7C13.875 6.775 13.95 6.775 14.1 6.85C14.1 6.85 14.175 6.85 14.175 6.925C13.875 7.825 13.05 8.5 12.075 8.5C11.025 8.425 10.125 7.75 9.97495 6.85C9.89995 6.85 9.89995 6.85 9.97495 6.85ZM8.62495 7.75C9.22495 9.1 10.5 10 12 10C13.5 10 14.775 9.1 15.375 7.75C15.75 8.05 16.05 8.35 16.2 8.5C15.45 9.25 13.8 10.75 11.925 10.75C10.05 10.75 8.39995 9.25 7.64995 8.5C7.94995 8.275 8.24995 7.975 8.62495 7.75Z" ></path>
    <path d="M12 3.9248C12.4142 3.9248 12.75 3.58902 12.75 3.1748C12.75 2.76059 12.4142 2.4248 12 2.4248C11.5858 2.4248 11.25 2.76059 11.25 3.1748C11.25 3.58902 11.5858 3.9248 12 3.9248Z" ></path>
    <path d="M15.225 4.59961C15.6392 4.59961 15.975 4.26382 15.975 3.84961C15.975 3.4354 15.6392 3.09961 15.225 3.09961C14.8108 3.09961 14.475 3.4354 14.475 3.84961C14.475 4.26382 14.8108 4.59961 15.225 4.59961Z" ></path>
    <path d="M18 6.25C18.4142 6.25 18.75 5.91421 18.75 5.5C18.75 5.08579 18.4142 4.75 18 4.75C17.5858 4.75 17.25 5.08579 17.25 5.5C17.25 5.91421 17.5858 6.25 18 6.25Z" ></path>
    <path d="M8.77502 4.59961C9.18924 4.59961 9.52502 4.26382 9.52502 3.84961C9.52502 3.4354 9.18924 3.09961 8.77502 3.09961C8.36081 3.09961 8.02502 3.4354 8.02502 3.84961C8.02502 4.26382 8.36081 4.59961 8.77502 4.59961Z" ></path>
    <path d="M6 6.25C6.41421 6.25 6.75 5.91421 6.75 5.5C6.75 5.08579 6.41421 4.75 6 4.75C5.58579 4.75 5.25 5.08579 5.25 5.5C5.25 5.91421 5.58579 6.25 6 6.25Z" ></path>
  </symbol>
  <symbol xmlns="http://www.w3.org/2000/svg" viewBox="0 0 24 24" id="menu-6">
    <path d="M11.9995 7.90039C14.2637 7.90039 16.0991 9.73578 16.0991 12C16.0991 14.2644 14.2637 16.0996 11.9995 16.0996C9.73522 16.0996 7.89995 14.2643 7.8999 12C7.8999 9.73587 9.73517 7.90045 11.9995 7.90039Z" stroke="#FFFFFF" stroke-width="1.4"></path>
    <path d="M9.59973 18.6992H14.3995C16.6637 18.6992 18.4991 20.5346 18.4991 22.7988V23.2988H5.50012V22.7988C5.50012 20.5346 7.33556 18.6992 9.59973 18.6992Z" stroke="#FFFFFF" stroke-width="1.4"></path>
    <path d="M4.70136 14.8818C4.23992 13.8826 4.00086 12.7989 4 11.7025C4.00504 7.38539 7.58372 3.88677 12 3.88184C16.4161 3.88677 19.995 7.38539 20 11.7025C19.9991 12.7989 19.7601 13.8826 19.2986 14.8818" stroke="#FFFFFF" stroke-width="1.4" stroke-linecap="round"></path>
    <path d="M2.91918 17.8568C1.66419 16.0451 0.994991 13.8996 1.00003 11.704C1.01378 5.71358 5.93858 0.868274 11.9996 0.881864C14.2209 0.877015 16.3915 1.53845 18.2244 2.77875C23.2255 6.16316 24.504 12.9138 21.0799 17.8568C21.0744 17.8653 21.0687 17.8737 21.0627 17.8818" stroke="#FFFFFF" stroke-width="1.4" stroke-linecap="round"></path>
  </symbol>
  <symbol fill="currentColor" xmlns="http://www.w3.org/2000/svg" viewBox="0 0 24 24" id="menu-7">
    <path d="M19.0312 9.89062H16.2188C15.8304 9.89062 15.5156 10.2054 15.5156 10.5938C15.5156 10.9821 15.8304 11.2969 16.2188 11.2969H16.6494L14.8125 16.8078L12.9756 11.2969H13.4062C13.7946 11.2969 14.1094 10.9821 14.1094 10.5938C14.1094 10.2054 13.7946 9.89062 13.4062 9.89062H10.5938C10.2054 9.89062 9.89062 10.2054 9.89062 10.5938C9.89062 10.9821 10.2054 11.2969 10.5938 11.2969H11.0244L9.1875 16.8078L7.35056 11.2969H7.78125C8.16956 11.2969 8.48438 10.9821 8.48438 10.5938C8.48438 10.2054 8.16956 9.89062 7.78125 9.89062H4.96875C4.58044 9.89062 4.26562 10.2054 4.26562 10.5938C4.26562 10.9821 4.58044 11.2969 4.96875 11.2969H5.86819L8.52042 19.2536C8.56708 19.3936 8.65662 19.5154 8.77634 19.6017C8.89606 19.688 9.0399 19.7344 9.18748 19.7344C9.33506 19.7344 9.4789 19.688 9.59862 19.6017C9.71834 19.5154 9.80787 19.3936 9.85453 19.2536L12 12.8172L14.1455 19.2536C14.1921 19.3936 14.2816 19.5154 14.4014 19.6017C14.5211 19.688 14.6649 19.7344 14.8125 19.7344C14.9601 19.7344 15.1039 19.688 15.2236 19.6017C15.3434 19.5154 15.4329 19.3936 15.4795 19.2536L18.1318 11.2969H19.0312C19.4196 11.2969 19.7344 10.9821 19.7344 10.5938C19.7344 10.2054 19.4196 9.89062 19.0312 9.89062Z" ></path>
    <path d="M21.8906 0H2.10938C0.946266 0 0 0.946266 0 2.10938V21.8906C0 23.0537 0.946266 24 2.10938 24H21.8906C23.0537 24 24 23.0537 24 21.8906V2.10938C24 0.946266 23.0537 0 21.8906 0ZM1.40625 2.10938C1.40625 1.72167 1.72167 1.40625 2.10938 1.40625H15.5156V5.625H1.40625V2.10938ZM22.5938 21.8906C22.5938 22.2783 22.2783 22.5938 21.8906 22.5938H2.10938C1.72167 22.5938 1.40625 22.2783 1.40625 21.8906V7.03125H22.5938V21.8906ZM22.5938 5.625H16.9219V1.40625H21.8906C22.2783 1.40625 22.5938 1.72167 22.5938 2.10938V5.625Z" ></path>
    <path d="M4.96875 2.8125H3.51562C3.12731 2.8125 2.8125 3.12731 2.8125 3.51562C2.8125 3.90394 3.12731 4.21875 3.51562 4.21875H4.96875C5.35706 4.21875 5.67188 3.90394 5.67188 3.51562C5.67188 3.12731 5.35706 2.8125 4.96875 2.8125ZM9.1875 2.8125H7.78125C7.39294 2.8125 7.07812 3.12731 7.07812 3.51562C7.07812 3.90394 7.39294 4.21875 7.78125 4.21875H9.1875C9.57581 4.21875 9.89062 3.90394 9.89062 3.51562C9.89062 3.12731 9.57581 2.8125 9.1875 2.8125ZM13.4062 2.8125H12C11.6117 2.8125 11.2969 3.12731 11.2969 3.51562C11.2969 3.90394 11.6117 4.21875 12 4.21875H13.4062C13.7946 4.21875 14.1094 3.90394 14.1094 3.51562C14.1094 3.12731 13.7946 2.8125 13.4062 2.8125Z" ></path>
  </symbol>
  <symbol fill="currentColor" xmlns="http://www.w3.org/2000/svg" viewBox="0 0 24 24" id="menu-8">
    <path d="M15.7564 4.68751C15.7564 6.75858 14.0776 8.4375 12.0065 8.4375C9.93539 8.4375 8.25647 6.75858 8.25647 4.68751C8.25647 2.61644 9.93539 0.937522 12.0065 0.937522C14.0776 0.937522 15.7564 2.61644 15.7564 4.68751Z" stroke="#AEB2B7" stroke-width="1.6" stroke-miterlimit="10" stroke-linecap="round" stroke-linejoin="round"></path>
    <path d="M13.7521 23.0625H10.2429" stroke="#AEB2B7" stroke-width="1.6" stroke-miterlimit="10" stroke-linecap="round" stroke-linejoin="round"></path>
    <path d="M7.29028 10.4814C8.466 9.22354 10.14 8.43726 11.9976 8.43726C13.8562 8.43726 15.5311 9.22434 16.7068 10.4834" stroke="#AEB2B7" stroke-width="1.6" stroke-miterlimit="10" stroke-linecap="round" stroke-linejoin="round"></path>
    <path d="M22.1897 13.8106C22.1897 15.8816 20.5108 17.5605 18.4397 17.5605C16.3686 17.5605 14.6897 15.8816 14.6897 13.8106C14.6897 11.7395 16.3686 10.0606 18.4397 10.0606C20.5108 10.0606 22.1897 11.7395 22.1897 13.8106Z" stroke="#AEB2B7" stroke-width="1.6" stroke-miterlimit="10" stroke-linecap="round" stroke-linejoin="round"></path>
    <path d="M13.7522 23.0625V22.2476C13.7522 19.6588 15.8508 17.5601 18.4397 17.5601C21.0285 17.5601 23.1272 19.6588 23.1272 22.2476V23.0625H13.7522Z" stroke="#AEB2B7" stroke-width="1.6" stroke-miterlimit="10" stroke-linecap="round" stroke-linejoin="round"></path>
    <path d="M9.32981 13.8341C9.32981 15.9186 7.63997 17.6084 5.55544 17.6084C3.47097 17.6084 1.78113 15.9186 1.78113 13.8341C1.78113 11.7496 3.47097 10.0597 5.55544 10.0597C7.63997 10.0597 9.32981 11.7496 9.32981 13.8341Z" stroke="#AEB2B7" stroke-width="1.6" stroke-miterlimit="10" stroke-linecap="round" stroke-linejoin="round"></path>
    <path d="M0.868042 23.0625V22.2476C0.868042 19.6588 2.96668 17.5601 5.55553 17.5601C8.14438 17.5601 10.243 19.6588 10.243 22.2476V23.0625H0.868042Z" stroke="#AEB2B7" stroke-width="1.6" stroke-miterlimit="10" stroke-linecap="round" stroke-linejoin="round"></path>
  </symbol>
  <symbol fill="currentColor" xmlns="http://www.w3.org/2000/svg" viewBox="0 0 24 22" id="menu-9">
    <path d="M21 8.675H20.25C20.25 6.575 20.175 0.5 12 0.5H4.5C4.2 0.5 3.9 0.725 3.75 1.025C2.85 4.025 2.85 6.5 3.075 8.675H3C1.725 8.675 0.75 9.725 0.75 10.925V13.1C0.75 14.375 1.8 15.35 3 15.35H4.2C5.4 19.775 8.775 21.425 12 21.425C14.925 21.425 17.925 20.075 19.35 16.55C19.65 16.175 19.8 15.8 19.95 15.35H21C22.275 15.35 23.25 14.3 23.25 13.1V11C23.25 9.725 22.2 8.675 21 8.675ZM3 14C2.55 14 2.25 13.625 2.25 13.25V11C2.25 10.55 2.625 10.25 3 10.25H3.225C3.225 10.475 3.3 10.7 3.3 11C3.525 11.975 3.675 12.95 3.75 14H3ZM5.1 1.925H12C17.175 1.925 18.375 4.625 18.675 6.8C17.175 4.85 14.7 3.5 12 3.5C8.7 3.5 5.85 5.45 4.575 8.225C4.35 6.425 4.35 4.4 5.1 1.925ZM18.075 15.875C17.85 16.1 17.475 16.25 17.1 16.25H13.35C13.125 15.8 12.6 15.425 12 15.425C11.175 15.425 10.5 16.1 10.5 16.925C10.5 17.75 11.175 18.425 12 18.425C12.525 18.425 12.975 18.125 13.275 17.75H17.025C15.9 19.175 14.175 20 12 20C7.8 20 5.25 16.925 5.25 11.675C5.25 7.925 8.25 4.925 12 4.925C15.75 4.925 18.75 7.925 18.75 11.675C18.75 13.325 18.525 14.75 18.075 15.875ZM21.75 13.175C21.75 13.625 21.375 13.925 21 13.925H20.25V10.175H21C21.45 10.175 21.75 10.55 21.75 10.925V13.175Z" ></path>
  </symbol>
  <symbol fill="currentColor" xmlns="http://www.w3.org/2000/svg" viewBox="0 0 24 24" id="menu-10">
    <path d="M19.2696 2.09475H5.53339C5.22074 0.891234 4.12513 0 2.82514 0C1.28235 0 0.0272217 1.25513 0.0272217 2.79787V21.1414C0.0272217 22.7176 1.30958 24 2.88585 24H15.5151C15.9034 24 16.2182 23.6851 16.2182 23.2968V21.1387H19.2696C19.6579 21.1387 19.9727 20.8238 19.9727 20.4355V2.79787C19.9727 2.40956 19.6579 2.09475 19.2696 2.09475ZM2.82514 1.40625C3.57814 1.40625 4.19286 2.00752 4.21564 2.75508C4.2148 2.76933 4.21349 2.78344 4.21349 2.79792V18.6103C3.80404 18.3951 3.34843 18.2827 2.88589 18.2828C2.37479 18.2823 1.87303 18.4197 1.43352 18.6806V2.79787C1.43347 2.03053 2.05775 1.40625 2.82514 1.40625ZM14.812 22.5938H2.88585C2.08499 22.5938 1.43347 21.9422 1.43347 21.1414C1.43347 20.3406 2.08499 19.689 2.88585 19.689C3.48163 19.689 4.01422 20.0534 4.23374 20.6019C4.30808 20.9104 4.58521 21.14 4.91657 21.14C4.93068 21.14 4.94469 21.1395 4.95857 21.1388H14.8119V22.5938H14.812ZM18.5665 19.7325H5.62297V3.501H18.5665V19.7325Z" ></path>
    <path d="M8.39697 15.1334H15.7893C16.1777 15.1334 16.4925 14.8186 16.4925 14.4303C16.4925 14.0419 16.1777 13.7271 15.7893 13.7271H8.39697C8.00866 13.7271 7.69385 14.0419 7.69385 14.4303C7.69385 14.8186 8.00866 15.1334 8.39697 15.1334ZM15.7893 16.5398H8.39697C8.00866 16.5398 7.69385 16.8546 7.69385 17.2429C7.69385 17.6312 8.00866 17.946 8.39697 17.946H15.7893C16.1777 17.946 16.4925 17.6312 16.4925 17.2429C16.4925 16.8546 16.1777 16.5398 15.7893 16.5398ZM8.39697 9.508H15.7893C16.1777 9.508 16.4925 9.19319 16.4925 8.80487V5.99219C16.4925 5.60387 16.1777 5.28906 15.7893 5.28906H8.39697C8.00866 5.28906 7.69385 5.60387 7.69385 5.99219V8.80487C7.69385 9.19319 8.00866 9.508 8.39697 9.508ZM9.1001 6.69531H15.0862V8.10175H9.1001V6.69531ZM8.39697 12.3207H15.7893C16.1777 12.3207 16.4925 12.0059 16.4925 11.6176C16.4925 11.2292 16.1777 10.9144 15.7893 10.9144H8.39697C8.00866 10.9144 7.69385 11.2292 7.69385 11.6176C7.69385 12.0059 8.00866 12.3207 8.39697 12.3207Z" ></path>
  </symbol>
  <symbol xmlns="http://www.w3.org/2000/svg" viewBox="0 0 24 24" id="menu-mail">
    <rect width="24" height="24" rx="12" fill="#FDFDFD"/>
    <path d="M13.3372 13.8021C12.9391 14.0674 12.4767 14.2077 12 14.2077C11.5233 14.2077 11.0609 14.0674 10.6629 13.8021L4.10653 9.43103C4.07034 9.40683 4.03481 9.38165 4 9.3555V16.5179C4 17.3391 4.66641 17.9908 5.47291 17.9908H18.5271C19.3482 17.9908 20 17.3244 20 16.5179V9.35547C19.9651 9.38168 19.9295 9.40692 19.8932 9.43116L13.3372 13.8021Z" fill="#1C1C1C"/>
    <path d="M4.62656 8.65131L11.1829 13.0224C11.4311 13.1878 11.7155 13.2706 12 13.2706C12.2844 13.2706 12.5689 13.1878 12.8171 13.0224L19.3734 8.65131C19.7658 8.38991 20 7.95241 20 7.48022C20 6.66831 19.3395 6.00781 18.5276 6.00781H5.47241C4.66053 6.00784 4 6.66834 4 7.481C3.99976 7.71263 4.05684 7.94071 4.16617 8.14492C4.2755 8.34912 4.43366 8.52309 4.62656 8.65131Z" fill="#1C1C1C"/>
  </symbol>
  <symbol xmlns="http://www.w3.org/2000/svg" viewBox="0 0 24 24" id="menu-tg">
    <rect width="24" height="24" rx="12" fill="#FDFDFD"/>
    <path fill-rule="evenodd" clip-rule="evenodd" d="M5.78997 11.2579C9.65544 9.75263 12.233 8.76024 13.5227 8.28076C17.2051 6.91176 17.9702 6.67395 18.4689 6.6661C18.5786 6.66437 18.8239 6.68867 18.9828 6.80389C19.1169 6.90118 19.1538 7.03261 19.1715 7.12486C19.1891 7.2171 19.2111 7.42723 19.1936 7.59142C18.9941 9.46548 18.1307 14.0133 17.6914 16.1123C17.5055 17.0005 17.1395 17.2983 16.7852 17.3274C16.0152 17.3907 15.4305 16.8725 14.6847 16.4356C13.5177 15.7518 12.8584 15.3261 11.7256 14.6589C10.4164 13.8878 11.2651 13.464 12.0112 12.7713C12.2064 12.5901 15.5991 9.8318 15.6648 9.58158C15.673 9.55029 15.6806 9.43364 15.6031 9.37204C15.5256 9.31045 15.4111 9.33151 15.3286 9.34826C15.2115 9.37201 13.3472 10.4734 9.73555 12.6525C9.20637 12.9773 8.72705 13.1356 8.29759 13.1273C7.82415 13.1181 6.91345 12.888 6.23643 12.6913C5.40604 12.45 4.74607 12.3225 4.80354 11.9127C4.83347 11.6993 5.16228 11.4811 5.78997 11.2579Z" fill="#1C1C1C"/>
  </symbol>
  <symbol xmlns="http://www.w3.org/2000/svg" viewBox="0 0 24 24" id="menu-insta">
    <rect width="24" height="24" rx="12" fill="#FDFDFD"/>
    <g clip-path="url(#clip0_270_20404)">
    <path d="M12 5.44062C14.1375 5.44062 14.3906 5.45 15.2313 5.4875C16.0125 5.52187 16.4344 5.65313 16.7156 5.7625C17.0875 5.90625 17.3563 6.08125 17.6344 6.35938C17.9156 6.64062 18.0875 6.90625 18.2313 7.27813C18.3406 7.55938 18.4719 7.98437 18.5063 8.7625C18.5438 9.60625 18.5531 9.85938 18.5531 11.9938C18.5531 14.1313 18.5438 14.3844 18.5063 15.225C18.4719 16.0063 18.3406 16.4281 18.2313 16.7094C18.0875 17.0813 17.9125 17.35 17.6344 17.6281C17.3531 17.9094 17.0875 18.0813 16.7156 18.225C16.4344 18.3344 16.0094 18.4656 15.2313 18.5C14.3875 18.5375 14.1344 18.5469 12 18.5469C9.8625 18.5469 9.60938 18.5375 8.76875 18.5C7.9875 18.4656 7.56563 18.3344 7.28438 18.225C6.9125 18.0813 6.64375 17.9063 6.36563 17.6281C6.08438 17.3469 5.9125 17.0813 5.76875 16.7094C5.65938 16.4281 5.52813 16.0031 5.49375 15.225C5.45625 14.3813 5.44688 14.1281 5.44688 11.9938C5.44688 9.85625 5.45625 9.60312 5.49375 8.7625C5.52813 7.98125 5.65938 7.55938 5.76875 7.27813C5.9125 6.90625 6.0875 6.6375 6.36563 6.35938C6.64688 6.07812 6.9125 5.90625 7.28438 5.7625C7.56563 5.65313 7.99063 5.52187 8.76875 5.4875C9.60938 5.45 9.8625 5.44062 12 5.44062ZM12 4C9.82813 4 9.55625 4.00937 8.70313 4.04688C7.85313 4.08438 7.26875 4.22187 6.7625 4.41875C6.23438 4.625 5.7875 4.89687 5.34375 5.34375C4.89688 5.7875 4.625 6.23438 4.41875 6.75938C4.22187 7.26875 4.08438 7.85 4.04688 8.7C4.00938 9.55625 4 9.82812 4 12C4 14.1719 4.00938 14.4438 4.04688 15.2969C4.08438 16.1469 4.22187 16.7313 4.41875 17.2375C4.625 17.7656 4.89688 18.2125 5.34375 18.6562C5.7875 19.1 6.23438 19.375 6.75938 19.5781C7.26875 19.775 7.85 19.9125 8.7 19.95C9.55313 19.9875 9.825 19.9969 11.9969 19.9969C14.1688 19.9969 14.4406 19.9875 15.2938 19.95C16.1438 19.9125 16.7281 19.775 17.2344 19.5781C17.7594 19.375 18.2063 19.1 18.65 18.6562C19.0938 18.2125 19.3688 17.7656 19.5719 17.2406C19.7688 16.7313 19.9063 16.15 19.9438 15.3C19.9813 14.4469 19.9906 14.175 19.9906 12.0031C19.9906 9.83125 19.9813 9.55938 19.9438 8.70625C19.9063 7.85625 19.7688 7.27187 19.5719 6.76562C19.375 6.23438 19.1031 5.7875 18.6563 5.34375C18.2125 4.9 17.7656 4.625 17.2406 4.42188C16.7313 4.225 16.15 4.0875 15.3 4.05C14.4438 4.00938 14.1719 4 12 4Z" fill="#1C1C1C"/>
    <path d="M12 5.44062C14.1375 5.44062 14.3906 5.45 15.2313 5.4875C16.0125 5.52187 16.4344 5.65313 16.7156 5.7625C17.0875 5.90625 17.3563 6.08125 17.6344 6.35938C17.9156 6.64062 18.0875 6.90625 18.2313 7.27813C18.3406 7.55938 18.4719 7.98437 18.5063 8.7625C18.5438 9.60625 18.5531 9.85938 18.5531 11.9938C18.5531 14.1313 18.5438 14.3844 18.5063 15.225C18.4719 16.0063 18.3406 16.4281 18.2313 16.7094C18.0875 17.0813 17.9125 17.35 17.6344 17.6281C17.3531 17.9094 17.0875 18.0813 16.7156 18.225C16.4344 18.3344 16.0094 18.4656 15.2313 18.5C14.3875 18.5375 14.1344 18.5469 12 18.5469C9.8625 18.5469 9.60938 18.5375 8.76875 18.5C7.9875 18.4656 7.56563 18.3344 7.28438 18.225C6.9125 18.0813 6.64375 17.9063 6.36563 17.6281C6.08438 17.3469 5.9125 17.0813 5.76875 16.7094C5.65938 16.4281 5.52813 16.0031 5.49375 15.225C5.45625 14.3813 5.44688 14.1281 5.44688 11.9938C5.44688 9.85625 5.45625 9.60312 5.49375 8.7625C5.52813 7.98125 5.65938 7.55938 5.76875 7.27813C5.9125 6.90625 6.0875 6.6375 6.36563 6.35938C6.64688 6.07812 6.9125 5.90625 7.28438 5.7625C7.56563 5.65313 7.99063 5.52187 8.76875 5.4875C9.60938 5.45 9.8625 5.44062 12 5.44062Z" fill="#1C1C1C"/>
    <path d="M12 7.89062C9.73125 7.89062 7.89062 9.73125 7.89062 12C7.89062 14.2688 9.73125 16.1094 12 16.1094C14.2688 16.1094 16.1094 14.2688 16.1094 12C16.1094 9.73125 14.2688 7.89062 12 7.89062ZM12 14.6656C10.5281 14.6656 9.33437 13.4719 9.33437 12C9.33437 10.5281 10.5281 9.33437 12 9.33437C13.4719 9.33437 14.6656 10.5281 14.6656 12C14.6656 13.4719 13.4719 14.6656 12 14.6656Z" fill="#FDFDFD"/>
    <path d="M17.2312 7.72891C17.2312 8.26016 16.8 8.68828 16.2719 8.68828C15.7406 8.68828 15.3125 8.25703 15.3125 7.72891C15.3125 7.19766 15.7438 6.76953 16.2719 6.76953C16.8 6.76953 17.2312 7.20078 17.2312 7.72891Z" fill="#FDFDFD"/>
    </g>
    <defs>
    <clipPath id="clip0_270_20404">
    <rect width="16" height="16" fill="white" transform="translate(4 4)"/>
    </clipPath>
    </defs>
  </symbol>
  <symbol xmlns="http://www.w3.org/2000/svg" viewBox="0 0 24 24" id="menu-youtube">
    <rect width="24" height="24" rx="12" fill="#FDFDFD"/>
    <path d="M19.8406 8.8002C19.8406 8.8002 19.6844 7.69707 19.2031 7.2127C18.5938 6.5752 17.9125 6.57207 17.6 6.53457C15.3625 6.37207 12.0031 6.37207 12.0031 6.37207H11.9969C11.9969 6.37207 8.6375 6.37207 6.4 6.53457C6.0875 6.57207 5.40625 6.5752 4.79688 7.2127C4.31563 7.69707 4.1625 8.8002 4.1625 8.8002C4.1625 8.8002 4 10.0971 4 11.3908V12.6033C4 13.8971 4.15937 15.1939 4.15937 15.1939C4.15937 15.1939 4.31562 16.2971 4.79375 16.7814C5.40313 17.4189 6.20313 17.3971 6.55938 17.4658C7.84063 17.5877 12 17.6252 12 17.6252C12 17.6252 15.3625 17.6189 17.6 17.4596C17.9125 17.4221 18.5938 17.4189 19.2031 16.7814C19.6844 16.2971 19.8406 15.1939 19.8406 15.1939C19.8406 15.1939 20 13.9002 20 12.6033V11.3908C20 10.0971 19.8406 8.8002 19.8406 8.8002ZM10.3469 14.0752V9.57832L14.6687 11.8346L10.3469 14.0752Z" fill="#1C1C1C"/>
  </symbol>
  <symbol xmlns="http://www.w3.org/2000/svg" viewBox="0 0 24 24" id="menu-vk">
    <rect width="24" height="24" rx="12" fill="#FDFDFD"/>
    <path d="M12.5953 16.6667C8.03985 16.6667 5.44152 13.4134 5.33325 8H7.61516C7.69011 11.9733 9.37235 13.6563 10.7049 14.0033V8H12.8536V11.4268C14.1694 11.2793 15.5517 9.71772 16.0181 8H18.1668C17.8087 10.1168 16.3096 11.6783 15.2436 12.3203C16.3096 12.8408 18.017 14.2029 18.6666 16.6667H16.3013C15.7933 15.0184 14.5275 13.7431 12.8536 13.5696V16.6667H12.5953Z" fill="#1C1C1C"/>
  </symbol>
  <symbol fill="currentColor" xmlns="http://www.w3.org/2000/svg" viewBox="0 0 24 24" id="menu-comment">
    <path d="M12 2.00001C10.4693 1.99902 8.9587 2.34946 7.58473 3.02435C6.21077 3.69924 5.01007 4.68054 4.07518 5.89266C3.14028 7.10478 2.49614 8.51535 2.19239 10.0157C1.88863 11.516 1.93337 13.0661 2.32316 14.5464C2.71295 16.0267 3.43738 17.3978 4.44064 18.5539C5.44389 19.7101 6.69919 20.6205 8.1098 21.215C9.5204 21.8095 11.0487 22.0723 12.5768 21.983C14.105 21.8937 15.5923 21.4548 16.924 20.7L20.684 21.953C20.7861 21.9857 20.8929 22.0016 21 22C21.1584 21.9999 21.3145 21.9622 21.4554 21.8899C21.5964 21.8177 21.7181 21.713 21.8107 21.5845C21.9032 21.456 21.964 21.3074 21.9879 21.1508C22.0117 20.9943 21.9981 20.8343 21.948 20.684L20.7 16.924C21.5644 15.4035 22.0143 13.6827 22.0048 11.9337C21.9953 10.1846 21.5267 8.4688 20.6458 6.95778C19.765 5.44676 18.5028 4.19353 16.9855 3.32348C15.4682 2.45343 13.7491 1.99705 12 2.00001ZM18.653 17.12L19.419 19.42L17.119 18.654C16.9788 18.6059 16.8295 18.59 16.6822 18.6073C16.5349 18.6246 16.3934 18.6747 16.268 18.754C14.6002 19.8095 12.6017 20.213 10.655 19.8871C8.70828 19.5612 6.95013 18.5289 5.71699 16.9877C4.48386 15.4465 3.86235 13.5047 3.97143 11.5339C4.0805 9.56317 4.9125 7.70183 6.30818 6.30615C7.70386 4.91047 9.5652 4.07847 11.536 3.9694C13.5067 3.86032 15.4485 4.48183 16.9897 5.71496C18.5309 6.9481 19.5632 8.70625 19.8891 10.653C20.215 12.5997 19.8116 14.5982 18.756 16.266C18.6764 16.3917 18.6258 16.5336 18.608 16.6814C18.5902 16.8291 18.6056 16.979 18.653 17.12Z"/>
  </symbol>
  <symbol fill="currentColor" xmlns="http://www.w3.org/2000/svg" viewBox="0 0 24 24" id="menu-bookmarks">
    <path d="M15 2H9.00002C7.67442 2.00156 6.40356 2.52884 5.46621 3.46618C4.52887 4.40352 4.00158 5.67437 4 6.99997V19.998C4.00004 20.363 4.09995 20.721 4.2889 21.0333C4.47786 21.3456 4.74865 21.6002 5.07195 21.7696C5.39526 21.939 5.75875 22.0167 6.12305 21.9943C6.48735 21.9719 6.83859 21.8503 7.1387 21.6425L11.998 18.2754L16.8618 21.6425C17.1619 21.8503 17.5131 21.972 17.8774 21.9944C18.2417 22.0168 18.6052 21.9391 18.9284 21.7697C19.2517 21.6003 19.5225 21.3456 19.7114 21.0333C19.9003 20.721 20.0001 20.363 20 19.998V6.99997C19.9985 5.67437 19.4712 4.40352 18.5338 3.46618C17.5965 2.52884 16.3256 2.00156 15 2ZM18 19.998L13.1372 16.6309C12.802 16.4006 12.4049 16.2773 11.9983 16.2773C11.5917 16.2773 11.1946 16.4006 10.8594 16.6309L6.00002 19.998V6.99997C6.00088 6.20459 6.31723 5.44203 6.87965 4.87961C7.44208 4.31719 8.20463 4.00084 9.00002 3.99997H15C15.7954 4.00084 16.558 4.31719 17.1204 4.87961C17.6828 5.44203 17.9991 6.20459 18 6.99997V19.998Z"/>
  </symbol>
  <symbol fill="white" xmlns="http://www.w3.org/2000/svg" viewBox="0 0 24 24" id="menu-share">
    <g clip-path="url(#clip0_191_13276)">
    <path d="M12.7195 14.6595L7.28076 11.5195M7.28076 8.47992L12.7195 5.33984" stroke="#322733" stroke-width="1.5625" stroke-miterlimit="2.6131"/>
    <path d="M17.5007 5.96822C18.6876 4.78134 18.6875 2.85706 17.5007 1.67023C16.3138 0.483389 14.3895 0.483423 13.2027 1.6703C12.0158 2.85718 12.0159 4.78146 13.2027 5.9683C14.3896 7.15513 16.3139 7.1551 17.5007 5.96822Z" stroke="#322733" stroke-width="1.5625" stroke-miterlimit="2.6131"/>
    <path d="M18.3726 16.5113C18.5558 14.8429 17.3517 13.3419 15.6832 13.1587C14.0148 12.9756 12.5138 14.1797 12.3306 15.8481C12.1475 17.5166 13.3516 19.0176 15.02 19.2007C16.6885 19.3839 18.1895 18.1798 18.3726 16.5113Z" stroke="#322733" stroke-width="1.5625" stroke-miterlimit="2.6131"/>
    <path d="M7.64853 10.4866C7.91744 8.82981 6.79233 7.26873 5.13554 6.99982C3.47875 6.73092 1.91767 7.85602 1.64876 9.51281C1.37986 11.1696 2.50496 12.7307 4.16175 12.9996C5.81854 13.2685 7.37963 12.1434 7.64853 10.4866Z" stroke="#322733" stroke-width="1.5625" stroke-miterlimit="2.6131"/>
    </g>
    <defs>
    <clipPath id="clip0_191_13276">
    <rect width="20" height="20" fill="white"/>
    </clipPath>
    </defs>
  </symbol>
  <symbol xmlns="http://www.w3.org/2000/svg" viewBox="0 0 24 24" id="menu-views">
    <path fill-rule="evenodd" clip-rule="evenodd" d="M21.5843 12.4126C19.6476 15.8904 15.9749 18.0508 12.0013 18.0508C8.02503 18.0508 4.35233 15.8904 2.41564 12.4126C2.26649 12.1426 2.26649 11.8571 2.41564 11.5873C4.35233 8.10954 8.02503 5.94935 12.0013 5.94935C15.9749 5.94935 19.6476 8.10954 21.5843 11.5873C21.7361 11.8571 21.7361 12.1426 21.5843 12.4126ZM22.8214 10.8978C20.6353 6.97118 16.4893 4.53223 12.0013 4.53223C7.51063 4.53223 3.36467 6.97118 1.17852 10.8978C0.787581 11.5984 0.787581 12.4016 1.17852 13.1016C3.36467 17.0282 7.51063 19.4677 12.0013 19.4677C16.4893 19.4677 20.6353 17.0282 22.8214 13.1016C23.2123 12.4016 23.2123 11.5984 22.8214 10.8978ZM12.0013 14.9069C13.6036 14.9069 14.9076 13.6029 14.9076 11.9998C14.9076 10.3968 13.6036 9.09279 12.0013 9.09279C10.3963 9.09279 9.09238 10.3968 9.09238 11.9998C9.09238 13.6029 10.3964 14.9069 12.0013 14.9069ZM12.0013 7.67566C9.61447 7.67566 7.67525 9.61568 7.67525 11.9999C7.67525 14.3846 9.61452 16.3238 12.0013 16.3238C14.3855 16.3238 16.3247 14.3846 16.3247 11.9999C16.3247 9.61568 14.3855 7.67566 12.0013 7.67566Z" fill="#322733"/>
  </symbol>
  <symbol xmlns="http://www.w3.org/2000/svg" viewBox="0 0 24 24" id="menu-repost">
    <g clip-path="url(#clip0_5_351)">
    <mask id="mask0_5_351" style="mask-type:luminance" maskUnits="userSpaceOnUse" x="0" y="0" width="24" height="24">
    <path d="M0 0H24V24H0V0Z" fill="white"/>
    </mask>
    <g mask="url(#mask0_5_351)">
    <path fill-rule="evenodd" clip-rule="evenodd" d="M5.70679 0.292786C5.89426 0.480314 5.99957 0.734622 5.99957 0.999786C5.99957 1.26495 5.89426 1.51926 5.70679 1.70679L2.41379 4.99979L5.70679 8.29279C5.88894 8.48139 5.98974 8.73399 5.98746 8.99619C5.98518 9.25838 5.88001 9.5092 5.6946 9.6946C5.5092 9.88001 5.25838 9.98518 4.99619 9.98746C4.73399 9.98974 4.48139 9.88894 4.29279 9.70679L0.292786 5.70679C0.105315 5.51926 0 5.26495 0 4.99979C0 4.73462 0.105315 4.48031 0.292786 4.29279L4.29279 0.292786C4.48031 0.105315 4.73462 0 4.99979 0C5.26495 0 5.51926 0.105315 5.70679 0.292786Z" fill="#322733"/>
    <path fill-rule="evenodd" clip-rule="evenodd" d="M0 4.99902C0 4.73381 0.105357 4.47945 0.292893 4.29192C0.48043 4.10438 0.734784 3.99902 1 3.99902H19C21.752 3.99902 24 6.24702 24 8.99902V10.999C24 11.2642 23.8946 11.5186 23.7071 11.7061C23.5196 11.8937 23.2652 11.999 23 11.999C22.7348 11.999 22.4804 11.8937 22.2929 11.7061C22.1054 11.5186 22 11.2642 22 10.999V8.99902C22 7.35102 20.648 5.99902 19 5.99902H1C0.734784 5.99902 0.48043 5.89367 0.292893 5.70613C0.105357 5.51859 0 5.26424 0 4.99902ZM18.293 14.292C18.4805 14.1046 18.7348 13.9992 19 13.9992C19.2652 13.9992 19.5195 14.1046 19.707 14.292L23.707 18.292C23.8945 18.4796 23.9998 18.7339 23.9998 18.999C23.9998 19.2642 23.8945 19.5185 23.707 19.706L19.707 23.706C19.5184 23.8882 19.2658 23.989 19.0036 23.9867C18.7414 23.9844 18.4906 23.8793 18.3052 23.6938C18.1198 23.5084 18.0146 23.2576 18.0123 22.9954C18.01 22.7332 18.1108 22.4806 18.293 22.292L21.586 18.999L18.293 15.706C18.1055 15.5185 18.0002 15.2642 18.0002 14.999C18.0002 14.7339 18.1055 14.4796 18.293 14.292Z" fill="#322733"/>
    <path fill-rule="evenodd" clip-rule="evenodd" d="M1 12C1.26522 12 1.51957 12.1054 1.70711 12.2929C1.89464 12.4804 2 12.7348 2 13V15C2 16.648 3.352 18 5 18H23C23.2652 18 23.5196 18.1054 23.7071 18.2929C23.8946 18.4804 24 18.7348 24 19C24 19.2652 23.8946 19.5196 23.7071 19.7071C23.5196 19.8946 23.2652 20 23 20H5C2.248 20 0 17.752 0 15V13C0 12.7348 0.105357 12.4804 0.292893 12.2929C0.48043 12.1054 0.734784 12 1 12Z" fill="#322733"/>
    </g>
    </g>
    <defs>
    <clipPath id="clip0_5_351">
    <rect width="24" height="24" fill="white"/>
    </clipPath>
    </defs>
  </symbol>
  <symbol xmlns="http://www.w3.org/2000/svg" viewBox="0 0 14 14" id="menu-repost2">
    <g clip-path="url(#clip0_217_15122)">
    <path d="M13.5629 12.8334C13.4844 12.8333 13.4073 12.8121 13.3397 12.772C13.2722 12.7318 13.2167 12.6742 13.1791 12.6053L13.1669 12.5831C12.5232 11.4218 11.5804 10.4538 10.4363 9.77982C9.29232 9.1058 7.98876 8.75023 6.66095 8.75002H5.83378V11.2292C5.83372 11.3151 5.80836 11.3991 5.76086 11.4707C5.71337 11.5423 5.64584 11.5983 5.56671 11.6318C5.48757 11.6653 5.40033 11.6747 5.31587 11.6589C5.23142 11.6431 5.15348 11.6028 5.09178 11.543L0.133448 6.73052C0.091246 6.68987 0.0576766 6.64112 0.0347473 6.5872C0.0118181 6.53327 0 6.47528 0 6.41668C0 6.35809 0.0118181 6.30009 0.0347473 6.24617C0.0576766 6.19225 0.091246 6.1435 0.133448 6.10285L5.09178 1.29035C5.15348 1.23055 5.23142 1.19024 5.31587 1.17444C5.40033 1.15865 5.48757 1.16808 5.56671 1.20155C5.64584 1.23502 5.71337 1.29105 5.76086 1.36266C5.80836 1.43426 5.83372 1.51826 5.83378 1.60418V4.08452C10.3505 4.16268 14.0004 7.86102 14.0004 12.3959C14.0004 12.5119 13.9544 12.6232 13.8723 12.7052C13.7903 12.7873 13.679 12.8334 13.5629 12.8334ZM5.39628 7.87502H6.66095C9.09695 7.87502 11.3795 8.94193 12.9399 10.7398C12.1851 7.43285 9.22003 4.95835 5.68795 4.95835H5.39628C5.28025 4.95835 5.16897 4.91226 5.08692 4.83021C5.00487 4.74816 4.95878 4.63688 4.95878 4.52085V2.63843L1.0662 6.41668L4.95878 10.1949V8.31252C4.95878 8.19648 5.00487 8.0852 5.08692 8.00316C5.16897 7.92111 5.28025 7.87502 5.39628 7.87502Z" fill="#322733"/>
    </g>
    <defs>
    <clipPath id="clip0_217_15122">
    <rect width="14" height="14" fill="white"/>
    </clipPath>
    </defs>
  </symbol>
  <symbol fill="currentColor" xmlns="http://www.w3.org/2000/svg" viewBox="0 0 24 24" id="calendar-icon">
    <path d="M21.2108 6.5145C21.0923 4.54388 19.4468 3 17.4649 3H16.5V2.25C16.5 2.05109 16.421 1.86032 16.2803 1.71967C16.1397 1.57902 15.9489 1.5 15.75 1.5C15.5511 1.5 15.3603 1.57902 15.2197 1.71967C15.079 1.86032 15 2.05109 15 2.25V3H9.00001V2.25C9.00001 2.05109 8.92099 1.86032 8.78034 1.71967C8.63969 1.57902 8.44892 1.5 8.25001 1.5C8.0511 1.5 7.86033 1.57902 7.71968 1.71967C7.57903 1.86032 7.50001 2.05109 7.50001 2.25V3H6.53514C4.55289 3 2.90739 4.54388 2.78926 6.5145C2.56689 10.221 2.57101 13.9808 2.80164 17.6891C2.91864 19.5724 4.42726 21.081 6.31051 21.198C8.19789 21.3154 10.0988 21.3739 11.9996 21.3739C13.9001 21.3739 15.8014 21.3154 17.6888 21.198C19.572 21.081 21.0806 19.5724 21.1976 17.6891C21.4286 13.9826 21.4328 10.2233 21.2108 6.5145ZM19.701 17.5961C19.6663 18.143 19.4333 18.6584 19.0459 19.0459C18.6584 19.4333 18.143 19.6662 17.5961 19.701C13.8829 19.9316 10.1171 19.9316 6.40389 19.701C5.85704 19.6662 5.34161 19.4333 4.95415 19.0459C4.56668 18.6584 4.33376 18.143 4.29901 17.5961C4.12322 14.7343 4.08355 11.8656 4.18014 9H19.8203C19.9148 11.865 19.8784 14.7461 19.701 17.5961ZM8.25001 6C8.44892 6 8.63969 5.92098 8.78034 5.78033C8.92099 5.63968 9.00001 5.44891 9.00001 5.25V4.5H15V5.25C15 5.44891 15.079 5.63968 15.2197 5.78033C15.3603 5.92098 15.5511 6 15.75 6C15.9489 6 16.1397 5.92098 16.2803 5.78033C16.421 5.63968 16.5 5.44891 16.5 5.25V4.5H17.4649C18.6548 4.5 19.6425 5.42438 19.7134 6.60413C19.731 6.90188 19.7385 7.2015 19.7531 7.5H4.24689C4.26189 7.2015 4.26901 6.90188 4.28664 6.60413C4.35751 5.42438 5.34489 4.5 6.53514 4.5H7.50001V5.25C7.50001 5.44891 7.57903 5.63968 7.71968 5.78033C7.86033 5.92098 8.0511 6 8.25001 6Z"/>
    <path d="M8.25 13.5C8.87132 13.5 9.375 12.9963 9.375 12.375C9.375 11.7537 8.87132 11.25 8.25 11.25C7.62868 11.25 7.125 11.7537 7.125 12.375C7.125 12.9963 7.62868 13.5 8.25 13.5Z"/>
    <path d="M12 13.5C12.6213 13.5 13.125 12.9963 13.125 12.375C13.125 11.7537 12.6213 11.25 12 11.25C11.3787 11.25 10.875 11.7537 10.875 12.375C10.875 12.9963 11.3787 13.5 12 13.5Z"/>
    <path d="M8.25 17.25C8.87132 17.25 9.375 16.7463 9.375 16.125C9.375 15.5037 8.87132 15 8.25 15C7.62868 15 7.125 15.5037 7.125 16.125C7.125 16.7463 7.62868 17.25 8.25 17.25Z"/>
    <path d="M15.75 13.5C16.3713 13.5 16.875 12.9963 16.875 12.375C16.875 11.7537 16.3713 11.25 15.75 11.25C15.1287 11.25 14.625 11.7537 14.625 12.375C14.625 12.9963 15.1287 13.5 15.75 13.5Z"/>
    <path d="M15.75 17.25C16.3713 17.25 16.875 16.7463 16.875 16.125C16.875 15.5037 16.3713 15 15.75 15C15.1287 15 14.625 15.5037 14.625 16.125C14.625 16.7463 15.1287 17.25 15.75 17.25Z"/>
    <path d="M12 17.25C12.6213 17.25 13.125 16.7463 13.125 16.125C13.125 15.5037 12.6213 15 12 15C11.3787 15 10.875 15.5037 10.875 16.125C10.875 16.7463 11.3787 17.25 12 17.25Z"/>
  </symbol>
  <symbol xmlns="http://www.w3.org/2000/svg" viewBox="0 0 12 12" id="copy">
    <path d="M6.35156 12H1.875C0.841102 12 0 11.1589 0 10.125V3.77344C0 2.73954 0.841102 1.89844 1.875 1.89844H6.35156C7.38546 1.89844 8.22656 2.73954 8.22656 3.77344V10.125C8.22656 11.1589 7.38546 12 6.35156 12ZM1.875 2.83594C1.35809 2.83594 0.9375 3.25652 0.9375 3.77344V10.125C0.9375 10.6419 1.35809 11.0625 1.875 11.0625H6.35156C6.86848 11.0625 7.28906 10.6419 7.28906 10.125V3.77344C7.28906 3.25652 6.86848 2.83594 6.35156 2.83594H1.875ZM10.1016 8.95312V1.875C10.1016 0.841102 9.26046 0 8.22656 0H3.02344C2.76452 0 2.55469 0.209836 2.55469 0.46875C2.55469 0.727664 2.76452 0.9375 3.02344 0.9375H8.22656C8.74348 0.9375 9.16406 1.35809 9.16406 1.875V8.95312C9.16406 9.21204 9.3739 9.42188 9.63281 9.42188C9.89173 9.42188 10.1016 9.21204 10.1016 8.95312Z" fill="#FE6E00"/>
  </symbol>
  <symbol xmlns="http://www.w3.org/2000/svg" viewBox="0 0 12 13" id="tg-2">
    <path fill-rule="evenodd" clip-rule="evenodd" d="M1.34254 5.94395C4.24164 4.81496 6.17482 4.07067 7.1421 3.71106C9.90386 2.68431 10.4777 2.50595 10.8518 2.50006C10.934 2.49877 11.118 2.51699 11.2371 2.60341C11.3377 2.67638 11.3654 2.77495 11.3787 2.84413C11.3919 2.91331 11.4084 3.07091 11.3953 3.19406C11.2456 4.5996 10.5981 8.01048 10.2686 9.58472C10.1292 10.2508 9.85471 10.4742 9.58897 10.496C9.01146 10.5435 8.57293 10.1549 8.01358 9.82717C7.13831 9.31434 6.64384 8.9951 5.79424 8.49467C4.81238 7.91633 5.44888 7.59847 6.00844 7.079C6.15488 6.94305 8.6994 4.87434 8.74865 4.68667C8.75481 4.6632 8.76053 4.57572 8.70238 4.52952C8.64423 4.48332 8.55841 4.49912 8.49648 4.51168C8.40869 4.52949 7.01044 5.35556 4.30172 6.98989C3.90484 7.23349 3.54535 7.35218 3.22326 7.34596C2.86818 7.3391 2.18515 7.1665 1.67738 7.01898C1.05459 6.83803 0.559612 6.74236 0.602714 6.43505C0.625164 6.27498 0.871773 6.11128 1.34254 5.94395Z" fill="#FDFDFD"/>
  </symbol>
  <symbol xmlns="http://www.w3.org/2000/svg" viewBox="0 0 12 13" id="youtube-2">
    <path d="M11.8805 4.10039C11.8805 4.10039 11.7633 3.27305 11.4023 2.90977C10.9453 2.43164 10.4344 2.4293 10.2 2.40117C8.52188 2.2793 6.00234 2.2793 6.00234 2.2793H5.99766C5.99766 2.2793 3.47813 2.2793 1.8 2.40117C1.56563 2.4293 1.05469 2.43164 0.597656 2.90977C0.236719 3.27305 0.121875 4.10039 0.121875 4.10039C0.121875 4.10039 0 5.07305 0 6.04336V6.95273C0 7.92305 0.119531 8.8957 0.119531 8.8957C0.119531 8.8957 0.236719 9.72305 0.595312 10.0863C1.05234 10.5645 1.65234 10.548 1.91953 10.5996C2.88047 10.691 6 10.7191 6 10.7191C6 10.7191 8.52188 10.7145 10.2 10.5949C10.4344 10.5668 10.9453 10.5645 11.4023 10.0863C11.7633 9.72305 11.8805 8.8957 11.8805 8.8957C11.8805 8.8957 12 7.92539 12 6.95273V6.04336C12 5.07305 11.8805 4.10039 11.8805 4.10039ZM4.76016 8.05664V4.68398L8.00156 6.37617L4.76016 8.05664Z" fill="#FDFDFD"/>
  </symbol>
  <symbol xmlns="http://www.w3.org/2000/svg" viewBox="0 0 12 13" id="vk-2">
    <path d="M6.44657 10C3.02995 10 1.0812 7.56006 1 3.5H2.71143C2.76765 6.47998 4.02933 7.74224 5.0287 8.0025V3.5H6.64026V6.07007C7.62714 5.95946 8.66387 4.78829 9.01365 3.5H10.6252C10.3566 5.08759 9.23229 6.25876 8.43279 6.74024C9.23229 7.13063 10.5128 8.15215 11 10H9.22605C8.84504 8.76376 7.89572 7.80731 6.64026 7.67718V10H6.44657Z" fill="#FDFDFD"/>
  </symbol>
  <symbol xmlns="http://www.w3.org/2000/svg" viewBox="0 0 12 13" id="insta-2">
    <g clip-path="url(#clip0_288_33063)">
    <path d="M6 1.58047C7.60313 1.58047 7.79297 1.5875 8.42344 1.61562C9.00938 1.64141 9.32578 1.73984 9.53672 1.82188C9.81563 1.92969 10.0172 2.06094 10.2258 2.26953C10.4367 2.48047 10.5656 2.67969 10.6734 2.95859C10.7555 3.16953 10.8539 3.48828 10.8797 4.07187C10.9078 4.70469 10.9148 4.89453 10.9148 6.49531C10.9148 8.09844 10.9078 8.28828 10.8797 8.91875C10.8539 9.50469 10.7555 9.82109 10.6734 10.032C10.5656 10.3109 10.4344 10.5125 10.2258 10.7211C10.0148 10.932 9.81563 11.0609 9.53672 11.1688C9.32578 11.2508 9.00703 11.3492 8.42344 11.375C7.79063 11.4031 7.60078 11.4102 6 11.4102C4.39688 11.4102 4.20703 11.4031 3.57656 11.375C2.99063 11.3492 2.67422 11.2508 2.46328 11.1688C2.18438 11.0609 1.98281 10.9297 1.77422 10.7211C1.56328 10.5102 1.43438 10.3109 1.32656 10.032C1.24453 9.82109 1.14609 9.50235 1.12031 8.91875C1.09219 8.28594 1.08516 8.09609 1.08516 6.49531C1.08516 4.89219 1.09219 4.70234 1.12031 4.07187C1.14609 3.48594 1.24453 3.16953 1.32656 2.95859C1.43438 2.67969 1.56563 2.47812 1.77422 2.26953C1.98516 2.05859 2.18438 1.92969 2.46328 1.82188C2.67422 1.73984 2.99297 1.64141 3.57656 1.61562C4.20703 1.5875 4.39688 1.58047 6 1.58047ZM6 0.5C4.37109 0.5 4.16719 0.507031 3.52734 0.535156C2.88984 0.563281 2.45156 0.666406 2.07188 0.814062C1.67578 0.96875 1.34063 1.17266 1.00781 1.50781C0.672656 1.84063 0.46875 2.17578 0.314063 2.56953C0.166406 2.95156 0.0632813 3.3875 0.0351563 4.025C0.00703125 4.66719 0 4.87109 0 6.5C0 8.12891 0.00703125 8.33281 0.0351563 8.97266C0.0632813 9.61016 0.166406 10.0484 0.314063 10.4281C0.46875 10.8242 0.672656 11.1594 1.00781 11.4922C1.34063 11.825 1.67578 12.0312 2.06953 12.1836C2.45156 12.3313 2.8875 12.4344 3.525 12.4625C4.16484 12.4906 4.36875 12.4977 5.99766 12.4977C7.62656 12.4977 7.83047 12.4906 8.47031 12.4625C9.10781 12.4344 9.54609 12.3313 9.92578 12.1836C10.3195 12.0312 10.6547 11.825 10.9875 11.4922C11.3203 11.1594 11.5266 10.8242 11.6789 10.4305C11.8266 10.0484 11.9297 9.6125 11.9578 8.975C11.9859 8.33516 11.993 8.13125 11.993 6.50234C11.993 4.87344 11.9859 4.66953 11.9578 4.02969C11.9297 3.39219 11.8266 2.95391 11.6789 2.57422C11.5312 2.17578 11.3273 1.84063 10.9922 1.50781C10.6594 1.175 10.3242 0.96875 9.93047 0.816406C9.54844 0.66875 9.1125 0.565625 8.475 0.5375C7.83281 0.507031 7.62891 0.5 6 0.5Z" fill="#FDFDFD"/>
    <path d="M6 1.58047C7.60313 1.58047 7.79297 1.5875 8.42344 1.61562C9.00938 1.64141 9.32578 1.73984 9.53672 1.82188C9.81563 1.92969 10.0172 2.06094 10.2258 2.26953C10.4367 2.48047 10.5656 2.67969 10.6734 2.95859C10.7555 3.16953 10.8539 3.48828 10.8797 4.07187C10.9078 4.70469 10.9148 4.89453 10.9148 6.49531C10.9148 8.09844 10.9078 8.28828 10.8797 8.91875C10.8539 9.50469 10.7555 9.82109 10.6734 10.032C10.5656 10.3109 10.4344 10.5125 10.2258 10.7211C10.0148 10.932 9.81563 11.0609 9.53672 11.1688C9.32578 11.2508 9.00703 11.3492 8.42344 11.375C7.79063 11.4031 7.60078 11.4102 6 11.4102C4.39688 11.4102 4.20703 11.4031 3.57656 11.375C2.99063 11.3492 2.67422 11.2508 2.46328 11.1688C2.18438 11.0609 1.98281 10.9297 1.77422 10.7211C1.56328 10.5102 1.43438 10.3109 1.32656 10.032C1.24453 9.82109 1.14609 9.50235 1.12031 8.91875C1.09219 8.28594 1.08516 8.09609 1.08516 6.49531C1.08516 4.89219 1.09219 4.70234 1.12031 4.07187C1.14609 3.48594 1.24453 3.16953 1.32656 2.95859C1.43438 2.67969 1.56563 2.47812 1.77422 2.26953C1.98516 2.05859 2.18438 1.92969 2.46328 1.82188C2.67422 1.73984 2.99297 1.64141 3.57656 1.61562C4.20703 1.5875 4.39688 1.58047 6 1.58047Z" fill="#FDFDFD"/>
    <path d="M6 3.41797C4.29844 3.41797 2.91797 4.79844 2.91797 6.5C2.91797 8.20156 4.29844 9.58203 6 9.58203C7.70156 9.58203 9.08203 8.20156 9.08203 6.5C9.08203 4.79844 7.70156 3.41797 6 3.41797ZM6 8.49922C4.89609 8.49922 4.00078 7.60391 4.00078 6.5C4.00078 5.39609 4.89609 4.50078 6 4.50078C7.10391 4.50078 7.99922 5.39609 7.99922 6.5C7.99922 7.60391 7.10391 8.49922 6 8.49922Z" fill="#322733"/>
    <path d="M9.92344 3.29668C9.92344 3.69512 9.6 4.01621 9.20391 4.01621C8.80547 4.01621 8.48438 3.69277 8.48438 3.29668C8.48438 2.89824 8.80781 2.57715 9.20391 2.57715C9.6 2.57715 9.92344 2.90059 9.92344 3.29668Z" fill="#322733"/>
    </g>
    <defs>
    <clipPath id="clip0_288_33063">
    <rect width="12" height="12" fill="white" transform="translate(0 0.5)"/>
    </clipPath>
    </defs>
  </symbol>
  <symbol fill="currentColor" xmlns="http://www.w3.org/2000/svg" viewBox="0 0 16 16" id="post">
    <path fill-rule="evenodd" clip-rule="evenodd" d="M10.9375 1.3125H3.0625C2.71441 1.31254 2.3806 1.45083 2.13446 1.69696C1.88833 1.9431 1.75004 2.27691 1.75 2.625V11.375C1.75004 11.7231 1.88833 12.0569 2.13446 12.303C2.3806 12.5492 2.71441 12.6875 3.0625 12.6875H7.98588C8.30185 12.6875 8.60722 12.5735 8.8459 12.3665L11.7975 9.80616C11.9396 9.68296 12.0535 9.53068 12.1316 9.35962C12.2096 9.18855 12.25 9.00271 12.25 8.81468V2.625C12.25 2.27691 12.1117 1.9431 11.8655 1.69696C11.6194 1.45083 11.2856 1.31254 10.9375 1.3125ZM11.375 8.3125V2.625C11.375 2.50897 11.3289 2.39769 11.2469 2.31564C11.1648 2.23359 11.0535 2.1875 10.9375 2.1875H3.0625C2.94647 2.1875 2.83519 2.23359 2.75314 2.31564C2.67109 2.39769 2.625 2.50897 2.625 2.625V11.375C2.625 11.491 2.67109 11.6023 2.75314 11.6844C2.83519 11.7664 2.94647 11.8125 3.0625 11.8125H7.4375V9.625C7.4375 9.2769 7.57578 8.94306 7.82192 8.69692C8.06806 8.45078 8.4019 8.3125 8.75 8.3125H11.375ZM11.1754 9.1875H8.75C8.63397 9.1875 8.52269 9.23359 8.44064 9.31564C8.35859 9.39769 8.3125 9.50897 8.3125 9.625V11.6708L11.1754 9.1875Z"/>
    <path fill-rule="evenodd" clip-rule="evenodd" d="M4.37579 4.375H9.62579C9.73991 4.37211 9.84838 4.32475 9.92807 4.24302C10.0078 4.16129 10.0524 4.05165 10.0524 3.9375C10.0524 3.82335 10.0078 3.71371 9.92807 3.63198C9.84838 3.55025 9.73991 3.50289 9.62579 3.5H4.37579C4.26167 3.50289 4.1532 3.55025 4.07351 3.63198C3.99382 3.71371 3.94922 3.82335 3.94922 3.9375C3.94922 4.05165 3.99382 4.16129 4.07351 4.24302C4.1532 4.32475 4.26167 4.37211 4.37579 4.375ZM4.37579 6.45316H9.62579C9.73991 6.45027 9.84838 6.40291 9.92807 6.32118C10.0078 6.23945 10.0524 6.12981 10.0524 6.01566C10.0524 5.90151 10.0078 5.79187 9.92807 5.71014C9.84838 5.62841 9.73991 5.58105 9.62579 5.57816H4.37579C4.26167 5.58105 4.1532 5.62841 4.07351 5.71014C3.99382 5.79187 3.94922 5.90151 3.94922 6.01566C3.94922 6.12981 3.99382 6.23945 4.07351 6.32118C4.1532 6.40291 4.26167 6.45027 4.37579 6.45316Z"/>
  </symbol>
  <symbol fill="currentColor" xmlns="http://www.w3.org/2000/svg" viewBox="0 0 16 16" id="filters">
    <path d="M8.51781 5.17383H0.78125C0.57405 5.17383 0.375336 5.09152 0.228823 4.94501C0.08231 4.79849 0 4.59978 0 4.39258C0 4.18538 0.08231 3.98666 0.228823 3.84015C0.375336 3.69364 0.57405 3.61133 0.78125 3.61133H8.51875C8.72595 3.61133 8.92466 3.69364 9.07118 3.84015C9.21769 3.98666 9.3 4.18538 9.3 4.39258C9.3 4.59978 9.21769 4.79849 9.07118 4.94501C8.92466 5.09152 8.72595 5.17383 8.51875 5.17383H8.51781ZM15.2188 5.17383H13.2631C13.0559 5.17383 12.8572 5.09152 12.7107 4.94501C12.5642 4.79849 12.4819 4.59978 12.4819 4.39258C12.4819 4.18538 12.5642 3.98666 12.7107 3.84015C12.8572 3.69364 13.0559 3.61133 13.2631 3.61133H15.2188C15.426 3.61133 15.6247 3.69364 15.7712 3.84015C15.9177 3.98666 16 4.18538 16 4.39258C16 4.59978 15.9177 4.79849 15.7712 4.94501C15.6247 5.09152 15.426 5.17383 15.2188 5.17383ZM15.2188 12.3888H7.48219C7.27499 12.3888 7.07627 12.3065 6.92976 12.16C6.78325 12.0135 6.70094 11.8148 6.70094 11.6076C6.70094 11.4004 6.78325 11.2017 6.92976 11.0552C7.07627 10.9086 7.27499 10.8263 7.48219 10.8263H15.2188C15.426 10.8263 15.6247 10.9086 15.7712 11.0552C15.9177 11.2017 16 11.4004 16 11.6076C16 11.8148 15.9177 12.0135 15.7712 12.16C15.6247 12.3065 15.426 12.3888 15.2188 12.3888ZM2.73688 12.3888H0.78125C0.57405 12.3888 0.375336 12.3065 0.228823 12.16C0.08231 12.0135 0 11.8148 0 11.6076C0 11.4004 0.08231 11.2017 0.228823 11.0552C0.375336 10.9086 0.57405 10.8263 0.78125 10.8263H2.73688C2.94408 10.8263 3.14279 10.9086 3.2893 11.0552C3.43581 11.2017 3.51813 11.4004 3.51813 11.6076C3.51813 11.8148 3.43581 12.0135 3.2893 12.16C3.14279 12.3065 2.94408 12.3888 2.73688 12.3888Z"/>
    <path d="M5.11141 14.7036C4.48758 14.7037 3.87774 14.5187 3.35902 14.1722C2.8403 13.8257 2.43598 13.3331 2.19721 12.7568C1.95844 12.1804 1.89593 11.5462 2.0176 10.9344C2.13926 10.3225 2.43963 9.76052 2.88073 9.31938C3.32182 8.87825 3.88382 8.57782 4.49565 8.4561C5.10749 8.33437 5.74168 8.39681 6.31803 8.63553C6.89438 8.87424 7.38699 9.27851 7.73358 9.7972C8.08017 10.3159 8.26516 10.9257 8.26516 11.5495C8.26458 12.3858 7.93213 13.1877 7.34082 13.779C6.74952 14.3704 5.94769 14.7029 5.11141 14.7036ZM5.11141 9.95828C4.7966 9.95822 4.48884 10.0515 4.22707 10.2264C3.96529 10.4012 3.76124 10.6498 3.64074 10.9406C3.52024 11.2315 3.4887 11.5515 3.5501 11.8603C3.6115 12.169 3.76309 12.4526 3.98569 12.6753C4.20829 12.8979 4.49191 13.0494 4.80067 13.1108C5.10944 13.1722 5.42947 13.1407 5.7203 13.0202C6.01114 12.8997 6.2597 12.6957 6.43456 12.4339C6.60942 12.1721 6.70272 11.8643 6.70266 11.5495C6.702 11.1277 6.53413 10.7234 6.23586 10.4251C5.93759 10.1268 5.53323 9.95894 5.11141 9.95828ZM10.892 7.54641C10.2682 7.54641 9.65841 7.36142 9.13973 7.01485C8.62105 6.66828 8.21678 6.17568 7.97806 5.59935C7.73934 5.02302 7.67687 4.38885 7.79857 3.77702C7.92027 3.16519 8.22067 2.60319 8.66177 2.16209C9.10288 1.72098 9.66488 1.42059 10.2767 1.29889C10.8885 1.17719 11.5227 1.23965 12.099 1.47837C12.6754 1.71709 13.168 2.12136 13.5145 2.64004C13.8611 3.15873 14.0461 3.76853 14.0461 4.39235C14.0455 5.22868 13.713 6.03059 13.1217 6.62196C12.5303 7.21334 11.7284 7.54583 10.892 7.54641ZM10.892 2.8011C10.5772 2.8011 10.2695 2.89445 10.0078 3.06934C9.74604 3.24424 9.54204 3.49283 9.42159 3.78367C9.30114 4.0745 9.26964 4.39453 9.33107 4.70327C9.39251 5.01201 9.54412 5.2956 9.76674 5.51817C9.98935 5.74074 10.273 5.8923 10.5817 5.95368C10.8905 6.01505 11.2105 5.98349 11.5013 5.86298C11.7921 5.74247 12.0407 5.53843 12.2155 5.27665C12.3904 5.01488 12.4837 4.70714 12.4836 4.39235C12.4829 3.97047 12.315 3.56606 12.0167 3.26778C11.7183 2.9695 11.3139 2.80167 10.892 2.8011Z"/>
  </symbol>
</svg>