<svg width="24" height="24" viewBox="0 0 24 24" fill="none" xmlns="http://www.w3.org/2000/svg">
<g clip-path="url(#clip0_191_9621)">
<path d="M11.025 12.9751C11.175 13.1251 11.4 13.2001 11.55 13.2001C11.7 13.2001 11.925 13.1251 12.075 12.9751L16.875 8.17511H19.05C19.275 8.17511 19.425 8.10011 19.575 7.95011L22.95 4.57511C23.25 4.35011 23.325 3.97511 23.175 3.75011C23.025 3.45011 22.8 3.30011 22.5 3.30011H20.7V1.50011C20.7 1.20011 20.55 0.900109 20.25 0.825109C19.95 0.675109 19.65 0.750109 19.425 0.975109L17.175 3.22511C15.45 2.17511 13.5 1.65011 11.55 1.65011C5.625 1.57511 0.75 6.45011 0.75 12.4501C0.75 18.4501 5.625 23.2501 11.55 23.2501C17.55 23.2501 22.35 18.3751 22.35 12.4501C22.35 11.2501 22.125 9.97511 21.75 8.85011C21.6 8.47511 21.15 8.25011 20.775 8.40011C20.4 8.55011 20.175 9.00011 20.325 9.37511C20.7 10.3501 20.85 11.4001 20.85 12.4501C20.85 17.6251 16.65 21.7501 11.55 21.7501C6.45 21.7501 2.25 17.5501 2.25 12.4501C2.25 7.35011 6.45 3.07511 11.55 3.07511C13.2 3.07511 14.7 3.45011 16.125 4.27511L16.05 4.35011C15.9 4.50011 15.825 4.65011 15.825 4.87511V6.30011C14.55 5.40011 13.05 4.95011 11.55 4.95011C7.425 4.95011 4.05 8.32511 4.05 12.4501C4.05 16.5751 7.425 19.9501 11.55 19.9501C15.675 19.9501 19.05 16.5751 19.05 12.4501C19.05 11.4751 18.9 10.5751 18.525 9.67511C18.375 9.30011 17.925 9.07511 17.55 9.22511C17.175 9.37511 16.95 9.82511 17.1 10.2001C17.4 10.9501 17.55 11.7001 17.55 12.4501C17.55 15.7501 14.85 18.4501 11.55 18.4501C8.25 18.4501 5.55 15.7501 5.55 12.4501C5.55 9.15011 8.25 6.45011 11.55 6.45011C12.9 6.45011 14.175 6.90011 15.225 7.72511L13.875 9.07511C13.2 8.62511 12.375 8.32511 11.55 8.32511C9.3 8.32511 7.425 10.2001 7.425 12.4501C7.425 14.7001 9.3 16.5751 11.55 16.5751C13.8 16.5751 15.675 14.7001 15.675 12.4501C15.675 12.0001 15.375 11.7001 14.925 11.7001C14.475 11.7001 14.175 12.0001 14.175 12.4501C14.175 13.8751 12.975 15.0751 11.55 15.0751C10.125 15.0751 9 13.8751 9 12.4501C9 11.0251 10.2 9.82511 11.625 9.82511C12.075 9.82511 12.45 9.90011 12.825 10.1251L11.025 11.9251C10.725 12.1501 10.725 12.6751 11.025 12.9751ZM19.95 4.80011H20.625L18.75 6.67511H17.325V5.17511L19.2 3.30011V3.97511C19.2 4.42511 19.575 4.80011 19.95 4.80011Z" fill="#AEB2B7"/>
</g>
<defs>
<clipPath id="clip0_191_9621">
<rect width="24" height="24" fill="white"/>
</clipPath>
</defs>
</svg>
