<svg width="24" height="22" viewBox="0 0 24 22" fill="none" xmlns="http://www.w3.org/2000/svg">
<path d="M21 8.675H20.25C20.25 6.575 20.175 0.5 12 0.5H4.5C4.2 0.5 3.9 0.725 3.75 1.025C2.85 4.025 2.85 6.5 3.075 8.675H3C1.725 8.675 0.75 9.725 0.75 10.925V13.1C0.75 14.375 1.8 15.35 3 15.35H4.2C5.4 19.775 8.775 21.425 12 21.425C14.925 21.425 17.925 20.075 19.35 16.55C19.65 16.175 19.8 15.8 19.95 15.35H21C22.275 15.35 23.25 14.3 23.25 13.1V11C23.25 9.725 22.2 8.675 21 8.675ZM3 14C2.55 14 2.25 13.625 2.25 13.25V11C2.25 10.55 2.625 10.25 3 10.25H3.225C3.225 10.475 3.3 10.7 3.3 11C3.525 11.975 3.675 12.95 3.75 14H3ZM5.1 1.925H12C17.175 1.925 18.375 4.625 18.675 6.8C17.175 4.85 14.7 3.5 12 3.5C8.7 3.5 5.85 5.45 4.575 8.225C4.35 6.425 4.35 4.4 5.1 1.925ZM18.075 15.875C17.85 16.1 17.475 16.25 17.1 16.25H13.35C13.125 15.8 12.6 15.425 12 15.425C11.175 15.425 10.5 16.1 10.5 16.925C10.5 17.75 11.175 18.425 12 18.425C12.525 18.425 12.975 18.125 13.275 17.75H17.025C15.9 19.175 14.175 20 12 20C7.8 20 5.25 16.925 5.25 11.675C5.25 7.925 8.25 4.925 12 4.925C15.75 4.925 18.75 7.925 18.75 11.675C18.75 13.325 18.525 14.75 18.075 15.875ZM21.75 13.175C21.75 13.625 21.375 13.925 21 13.925H20.25V10.175H21C21.45 10.175 21.75 10.55 21.75 10.925V13.175Z" fill="#AEB2B7"/>
</svg>
