<svg width="24" height="24" viewBox="0 0 24 24" fill="none" xmlns="http://www.w3.org/2000/svg">
<path d="M15.7564 4.68751C15.7564 6.75858 14.0776 8.4375 12.0065 8.4375C9.93539 8.4375 8.25647 6.75858 8.25647 4.68751C8.25647 2.61644 9.93539 0.937522 12.0065 0.937522C14.0776 0.937522 15.7564 2.61644 15.7564 4.68751Z" stroke="#AEB2B7" stroke-width="1.6" stroke-miterlimit="10" stroke-linecap="round" stroke-linejoin="round"/>
<path d="M13.7521 23.0625H10.2429" stroke="#AEB2B7" stroke-width="1.6" stroke-miterlimit="10" stroke-linecap="round" stroke-linejoin="round"/>
<path d="M7.29028 10.4814C8.466 9.22354 10.14 8.43726 11.9976 8.43726C13.8562 8.43726 15.5311 9.22434 16.7068 10.4834" stroke="#AEB2B7" stroke-width="1.6" stroke-miterlimit="10" stroke-linecap="round" stroke-linejoin="round"/>
<path d="M22.1897 13.8106C22.1897 15.8816 20.5108 17.5605 18.4397 17.5605C16.3686 17.5605 14.6897 15.8816 14.6897 13.8106C14.6897 11.7395 16.3686 10.0606 18.4397 10.0606C20.5108 10.0606 22.1897 11.7395 22.1897 13.8106Z" stroke="#AEB2B7" stroke-width="1.6" stroke-miterlimit="10" stroke-linecap="round" stroke-linejoin="round"/>
<path d="M13.7522 23.0625V22.2476C13.7522 19.6588 15.8508 17.5601 18.4397 17.5601C21.0285 17.5601 23.1272 19.6588 23.1272 22.2476V23.0625H13.7522Z" stroke="#AEB2B7" stroke-width="1.6" stroke-miterlimit="10" stroke-linecap="round" stroke-linejoin="round"/>
<path d="M9.32981 13.8341C9.32981 15.9186 7.63997 17.6084 5.55544 17.6084C3.47097 17.6084 1.78113 15.9186 1.78113 13.8341C1.78113 11.7496 3.47097 10.0597 5.55544 10.0597C7.63997 10.0597 9.32981 11.7496 9.32981 13.8341Z" stroke="#AEB2B7" stroke-width="1.6" stroke-miterlimit="10" stroke-linecap="round" stroke-linejoin="round"/>
<path d="M0.868042 23.0625V22.2476C0.868042 19.6588 2.96668 17.5601 5.55553 17.5601C8.14438 17.5601 10.243 19.6588 10.243 22.2476V23.0625H0.868042Z" stroke="#AEB2B7" stroke-width="1.6" stroke-miterlimit="10" stroke-linecap="round" stroke-linejoin="round"/>
</svg>
