<svg width="24" height="24" viewBox="0 0 24 24" fill="none" xmlns="http://www.w3.org/2000/svg">
<path d="M18.9085 1H5.09148C2.83292 1.00262 1.00262 2.83292 1 5.09148V18.9085C1.00262 21.1671 2.83292 22.9974 5.09148 23H18.9085C21.1671 22.9974 22.9974 21.1671 23 18.9085V5.09148C22.9974 2.83292 21.1671 1.00262 18.9085 1ZM21.4813 5.09148V6.41797H17.6339L14.7564 2.51873H18.9086C20.3288 2.52032 21.4797 3.67124 21.4813 5.09148ZM12.8689 2.51873L15.7464 6.41797H11.1311L8.25364 2.51873H12.8689ZM2.51873 5.09148C2.52032 3.67128 3.67124 2.52036 5.09148 2.51873H6.36615L9.2436 6.41797H2.51873V5.09148ZM18.9085 21.4813H5.09148C3.67128 21.4797 2.52036 20.3288 2.51873 18.9085V7.93675H21.4813V18.9085C21.4796 20.3287 20.3287 21.4796 18.9085 21.4813Z" fill="#AEB2B7"/>
<path d="M16.0516 14.0509L10.044 10.5823C9.68075 10.3726 9.21634 10.4971 9.00666 10.8603C8.94 10.9757 8.90491 11.1067 8.90491 11.24V18.1771C8.90491 18.5965 9.24488 18.9365 9.66425 18.9365C9.79754 18.9365 9.92851 18.9014 10.044 18.8347L16.0516 15.3662C16.4149 15.1565 16.5393 14.6921 16.3296 14.3289C16.263 14.2134 16.1671 14.1175 16.0516 14.0509ZM10.4236 16.8618V12.5552L14.1532 14.7085L10.4236 16.8618Z" fill="#AEB2B7"/>
</svg>
