<svg width="64" height="46" viewBox="0 0 64 46" fill="none" xmlns="http://www.w3.org/2000/svg">
<path d="M61.5054 4.34592C59.1952 1.5997 54.93 0.479492 46.7842 0.479492H17.2152C8.88299 0.479492 4.54544 1.67196 2.24392 4.59573C0 7.44641 0 11.6467 0 17.4599V28.54C0 39.8021 2.6624 45.5202 17.2152 45.5202H46.7844C53.8484 45.5202 57.7627 44.5317 60.295 42.1082C62.892 39.6229 64 35.5651 64 28.54V17.4599C64 11.3294 63.8264 7.10432 61.5054 4.34592ZM41.0882 24.5297L27.661 31.5472C27.3464 31.7118 26.9945 31.7925 26.6396 31.7814C26.2846 31.7703 25.9386 31.6678 25.6348 31.4838C25.3311 31.2998 25.0799 31.0406 24.9057 30.7311C24.7315 30.4217 24.64 30.0725 24.6402 29.7174V15.7274C24.6402 15.3728 24.7316 15.0242 24.9054 14.7152C25.0793 14.4061 25.3298 14.1471 25.6329 13.963C25.936 13.7789 26.2813 13.676 26.6357 13.6641C26.9901 13.6523 27.3416 13.7319 27.6563 13.8953L41.0835 20.8676C41.4186 21.0416 41.6996 21.3042 41.8958 21.6268C42.0921 21.9494 42.1961 22.3196 42.1966 22.6972C42.1971 23.0748 42.094 23.4453 41.8986 23.7684C41.7032 24.0915 41.4229 24.3548 41.0882 24.5297Z" fill="#FE6E00"/>
<path opacity="0.96" d="M41.0886 24.5298L27.6614 31.5473C27.3468 31.7119 26.995 31.7926 26.64 31.7815C26.2851 31.7704 25.939 31.6679 25.6352 31.4839C25.3315 31.2999 25.0803 31.0407 24.9061 30.7312C24.7319 30.4218 24.6404 30.0726 24.6406 29.7175V15.7275C24.6406 15.3729 24.732 15.0243 24.9059 14.7153C25.0797 14.4062 25.3303 14.1472 25.6333 13.9631C25.9364 13.779 26.2818 13.6761 26.6361 13.6642C26.9905 13.6524 27.342 13.732 27.6567 13.8954L41.0839 20.8677C41.419 21.0417 41.7 21.3043 41.8962 21.6269C42.0925 21.9495 42.1966 22.3197 42.197 22.6973C42.1975 23.0749 42.0945 23.4454 41.899 23.7685C41.7036 24.0916 41.4233 24.3549 41.0886 24.5298Z" fill="#FDFDFD"/>
</svg>
