<svg width="14" height="14" viewBox="0 0 14 14" fill="none" xmlns="http://www.w3.org/2000/svg">
<path fill-rule="evenodd" clip-rule="evenodd" d="M10.9375 1.3125H3.0625C2.71441 1.31254 2.3806 1.45083 2.13446 1.69696C1.88833 1.9431 1.75004 2.27691 1.75 2.625V11.375C1.75004 11.7231 1.88833 12.0569 2.13446 12.303C2.3806 12.5492 2.71441 12.6875 3.0625 12.6875H7.98588C8.30185 12.6875 8.60722 12.5735 8.8459 12.3665L11.7975 9.80616C11.9396 9.68296 12.0535 9.53068 12.1316 9.35962C12.2096 9.18855 12.25 9.00271 12.25 8.81468V2.625C12.25 2.27691 12.1117 1.9431 11.8655 1.69696C11.6194 1.45083 11.2856 1.31254 10.9375 1.3125ZM11.375 8.3125V2.625C11.375 2.50897 11.3289 2.39769 11.2469 2.31564C11.1648 2.23359 11.0535 2.1875 10.9375 2.1875H3.0625C2.94647 2.1875 2.83519 2.23359 2.75314 2.31564C2.67109 2.39769 2.625 2.50897 2.625 2.625V11.375C2.625 11.491 2.67109 11.6023 2.75314 11.6844C2.83519 11.7664 2.94647 11.8125 3.0625 11.8125H7.4375V9.625C7.4375 9.2769 7.57578 8.94306 7.82192 8.69692C8.06806 8.45078 8.4019 8.3125 8.75 8.3125H11.375ZM11.1754 9.1875H8.75C8.63397 9.1875 8.52269 9.23359 8.44064 9.31564C8.35859 9.39769 8.3125 9.50897 8.3125 9.625V11.6708L11.1754 9.1875Z" fill="#FE6E00"/>
<path fill-rule="evenodd" clip-rule="evenodd" d="M4.37579 4.375H9.62579C9.73991 4.37211 9.84838 4.32475 9.92807 4.24302C10.0078 4.16129 10.0524 4.05165 10.0524 3.9375C10.0524 3.82335 10.0078 3.71371 9.92807 3.63198C9.84838 3.55025 9.73991 3.50289 9.62579 3.5H4.37579C4.26167 3.50289 4.1532 3.55025 4.07351 3.63198C3.99382 3.71371 3.94922 3.82335 3.94922 3.9375C3.94922 4.05165 3.99382 4.16129 4.07351 4.24302C4.1532 4.32475 4.26167 4.37211 4.37579 4.375ZM4.37579 6.45316H9.62579C9.73991 6.45027 9.84838 6.40291 9.92807 6.32118C10.0078 6.23945 10.0524 6.12981 10.0524 6.01566C10.0524 5.90151 10.0078 5.79187 9.92807 5.71014C9.84838 5.62841 9.73991 5.58105 9.62579 5.57816H4.37579C4.26167 5.58105 4.1532 5.62841 4.07351 5.71014C3.99382 5.79187 3.94922 5.90151 3.94922 6.01566C3.94922 6.12981 3.99382 6.23945 4.07351 6.32118C4.1532 6.40291 4.26167 6.45027 4.37579 6.45316Z" fill="#FE6E00"/>
</svg>
