<svg width="24" height="24" viewBox="0 0 24 24" fill="none" xmlns="http://www.w3.org/2000/svg">
<g clip-path="url(#clip0_5_351)">
<mask id="mask0_5_351" style="mask-type:luminance" maskUnits="userSpaceOnUse" x="0" y="0" width="24" height="24">
<path d="M0 0H24V24H0V0Z" fill="white"/>
</mask>
<g mask="url(#mask0_5_351)">
<path fill-rule="evenodd" clip-rule="evenodd" d="M5.70679 0.292786C5.89426 0.480314 5.99957 0.734622 5.99957 0.999786C5.99957 1.26495 5.89426 1.51926 5.70679 1.70679L2.41379 4.99979L5.70679 8.29279C5.88894 8.48139 5.98974 8.73399 5.98746 8.99619C5.98518 9.25838 5.88001 9.5092 5.6946 9.6946C5.5092 9.88001 5.25838 9.98518 4.99619 9.98746C4.73399 9.98974 4.48139 9.88894 4.29279 9.70679L0.292786 5.70679C0.105315 5.51926 0 5.26495 0 4.99979C0 4.73462 0.105315 4.48031 0.292786 4.29279L4.29279 0.292786C4.48031 0.105315 4.73462 0 4.99979 0C5.26495 0 5.51926 0.105315 5.70679 0.292786Z" fill="#322733"/>
<path fill-rule="evenodd" clip-rule="evenodd" d="M0 4.99902C0 4.73381 0.105357 4.47945 0.292893 4.29192C0.48043 4.10438 0.734784 3.99902 1 3.99902H19C21.752 3.99902 24 6.24702 24 8.99902V10.999C24 11.2642 23.8946 11.5186 23.7071 11.7061C23.5196 11.8937 23.2652 11.999 23 11.999C22.7348 11.999 22.4804 11.8937 22.2929 11.7061C22.1054 11.5186 22 11.2642 22 10.999V8.99902C22 7.35102 20.648 5.99902 19 5.99902H1C0.734784 5.99902 0.48043 5.89367 0.292893 5.70613C0.105357 5.51859 0 5.26424 0 4.99902ZM18.293 14.292C18.4805 14.1046 18.7348 13.9992 19 13.9992C19.2652 13.9992 19.5195 14.1046 19.707 14.292L23.707 18.292C23.8945 18.4796 23.9998 18.7339 23.9998 18.999C23.9998 19.2642 23.8945 19.5185 23.707 19.706L19.707 23.706C19.5184 23.8882 19.2658 23.989 19.0036 23.9867C18.7414 23.9844 18.4906 23.8793 18.3052 23.6938C18.1198 23.5084 18.0146 23.2576 18.0123 22.9954C18.01 22.7332 18.1108 22.4806 18.293 22.292L21.586 18.999L18.293 15.706C18.1055 15.5185 18.0002 15.2642 18.0002 14.999C18.0002 14.7339 18.1055 14.4796 18.293 14.292Z" fill="#322733"/>
<path fill-rule="evenodd" clip-rule="evenodd" d="M1 12C1.26522 12 1.51957 12.1054 1.70711 12.2929C1.89464 12.4804 2 12.7348 2 13V15C2 16.648 3.352 18 5 18H23C23.2652 18 23.5196 18.1054 23.7071 18.2929C23.8946 18.4804 24 18.7348 24 19C24 19.2652 23.8946 19.5196 23.7071 19.7071C23.5196 19.8946 23.2652 20 23 20H5C2.248 20 0 17.752 0 15V13C0 12.7348 0.105357 12.4804 0.292893 12.2929C0.48043 12.1054 0.734784 12 1 12Z" fill="#322733"/>
</g>
</g>
<defs>
<clipPath id="clip0_5_351">
<rect width="24" height="24" fill="white"/>
</clipPath>
</defs>
</svg>
