<svg width="14" height="14" viewBox="0 0 14 14" fill="none" xmlns="http://www.w3.org/2000/svg">
<g clip-path="url(#clip0_217_15122)">
<path d="M13.5629 12.8334C13.4844 12.8333 13.4073 12.8121 13.3397 12.772C13.2722 12.7318 13.2167 12.6742 13.1791 12.6053L13.1669 12.5831C12.5232 11.4218 11.5804 10.4538 10.4363 9.77982C9.29232 9.1058 7.98876 8.75023 6.66095 8.75002H5.83378V11.2292C5.83372 11.3151 5.80836 11.3991 5.76086 11.4707C5.71337 11.5423 5.64584 11.5983 5.56671 11.6318C5.48757 11.6653 5.40033 11.6747 5.31587 11.6589C5.23142 11.6431 5.15348 11.6028 5.09178 11.543L0.133448 6.73052C0.091246 6.68987 0.0576766 6.64112 0.0347473 6.5872C0.0118181 6.53327 0 6.47528 0 6.41668C0 6.35809 0.0118181 6.30009 0.0347473 6.24617C0.0576766 6.19225 0.091246 6.1435 0.133448 6.10285L5.09178 1.29035C5.15348 1.23055 5.23142 1.19024 5.31587 1.17444C5.40033 1.15865 5.48757 1.16808 5.56671 1.20155C5.64584 1.23502 5.71337 1.29105 5.76086 1.36266C5.80836 1.43426 5.83372 1.51826 5.83378 1.60418V4.08452C10.3505 4.16268 14.0004 7.86102 14.0004 12.3959C14.0004 12.5119 13.9544 12.6232 13.8723 12.7052C13.7903 12.7873 13.679 12.8334 13.5629 12.8334ZM5.39628 7.87502H6.66095C9.09695 7.87502 11.3795 8.94193 12.9399 10.7398C12.1851 7.43285 9.22003 4.95835 5.68795 4.95835H5.39628C5.28025 4.95835 5.16897 4.91226 5.08692 4.83021C5.00487 4.74816 4.95878 4.63688 4.95878 4.52085V2.63843L1.0662 6.41668L4.95878 10.1949V8.31252C4.95878 8.19648 5.00487 8.0852 5.08692 8.00316C5.16897 7.92111 5.28025 7.87502 5.39628 7.87502Z" fill="#322733"/>
</g>
<defs>
<clipPath id="clip0_217_15122">
<rect width="14" height="14" fill="white"/>
</clipPath>
</defs>
</svg>
