<svg width="20" height="21" viewBox="0 0 20 21" fill="none" xmlns="http://www.w3.org/2000/svg">
<path d="M8.04937 16.5923C9.83699 16.5923 11.5735 15.9959 12.9838 14.8974L18.3044 20.2181C18.7019 20.6019 19.3353 20.5909 19.7191 20.1934C20.0936 19.8057 20.0936 19.191 19.7191 18.8034L14.3985 13.4827C17.1242 9.97394 16.4895 4.91986 12.9807 2.1941C9.47194 -0.531652 4.41791 0.103082 1.69215 3.61187C-1.03361 7.12065 -0.398871 12.1747 3.10991 14.9005C4.52252 15.9979 6.26059 16.5932 8.04937 16.5923ZM3.77429 4.27316C6.13538 1.91203 9.96346 1.91199 12.3246 4.27308C14.6857 6.63417 14.6858 10.4622 12.3247 12.8234C9.96359 15.1845 6.13551 15.1846 3.77437 12.8235L3.77429 12.8234C1.4132 10.4795 1.39929 6.66537 3.74317 4.30428L3.77429 4.27316Z" fill="#AEB2B7"/>
</svg>
