<svg width="20" height="20" viewBox="0 0 20 20" fill="none" xmlns="http://www.w3.org/2000/svg">
<g clip-path="url(#clip0_191_13276)">
<path d="M12.7195 14.6595L7.28076 11.5195M7.28076 8.47992L12.7195 5.33984" stroke="#322733" stroke-width="1.5625" stroke-miterlimit="2.6131"/>
<path d="M17.5007 5.96822C18.6876 4.78134 18.6875 2.85706 17.5007 1.67023C16.3138 0.483389 14.3895 0.483423 13.2027 1.6703C12.0158 2.85718 12.0159 4.78146 13.2027 5.9683C14.3896 7.15513 16.3139 7.1551 17.5007 5.96822Z" stroke="#322733" stroke-width="1.5625" stroke-miterlimit="2.6131"/>
<path d="M18.3726 16.5113C18.5558 14.8429 17.3517 13.3419 15.6832 13.1587C14.0148 12.9756 12.5138 14.1797 12.3306 15.8481C12.1475 17.5166 13.3516 19.0176 15.02 19.2007C16.6885 19.3839 18.1895 18.1798 18.3726 16.5113Z" stroke="#322733" stroke-width="1.5625" stroke-miterlimit="2.6131"/>
<path d="M7.64853 10.4866C7.91744 8.82981 6.79233 7.26873 5.13554 6.99982C3.47875 6.73092 1.91767 7.85602 1.64876 9.51281C1.37986 11.1696 2.50496 12.7307 4.16175 12.9996C5.81854 13.2685 7.37963 12.1434 7.64853 10.4866Z" stroke="#322733" stroke-width="1.5625" stroke-miterlimit="2.6131"/>
</g>
<defs>
<clipPath id="clip0_191_13276">
<rect width="20" height="20" fill="white"/>
</clipPath>
</defs>
</svg>
