<svg width="12" height="12" viewBox="0 0 12 12" fill="none" xmlns="http://www.w3.org/2000/svg">
<g clip-path="url(#clip0_223_18649)">
<path d="M2.31243 11.4017C2.42385 11.4823 2.5544 11.5233 2.68589 11.5233C2.7994 11.5233 2.91193 11.4928 3.01292 11.4328L5.99999 9.64672L8.98708 11.4318C9.20505 11.5628 9.48111 11.5513 9.68811 11.4013C9.89556 11.2513 9.99262 10.9928 9.93604 10.7427L9.16404 7.34219L11.7821 5.04663C11.9746 4.87863 12.0477 4.61211 11.9686 4.3691C11.8896 4.12612 11.6747 3.95352 11.4196 3.93055L7.95606 3.61608L6.5865 0.410448C6.48551 0.175504 6.25553 0.0234375 5.99999 0.0234375C5.74444 0.0234375 5.51447 0.175504 5.41352 0.410987L4.04392 3.61608L0.579836 3.9306C0.455524 3.94199 0.337287 3.98961 0.239786 4.06756C0.142285 4.14551 0.0698065 4.25037 0.0313374 4.36913C-0.00736918 4.48795 -0.0102845 4.61553 0.0229542 4.73599C0.0561929 4.85646 0.124118 4.96449 0.21828 5.04665L2.83641 7.34263L2.0644 10.7433C2.03664 10.8653 2.04535 10.9927 2.08945 11.1098C2.13354 11.2269 2.21108 11.3284 2.31243 11.4017Z" fill="#FF8F33"/>
</g>
<defs>
<clipPath id="clip0_223_18649">
<rect width="12" height="12" fill="white"/>
</clipPath>
</defs>
</svg>
