<svg width="15" height="14" viewBox="0 0 15 14" fill="none" xmlns="http://www.w3.org/2000/svg">
<g clip-path="url(#clip0_217_15020)">
<path d="M12.8593 13.4531H2.14062C1.53655 13.4531 1.04688 12.9634 1.04688 12.3594V1.64066C1.04688 1.03661 1.53655 0.546912 2.14062 0.546912H12.8593C13.4634 0.546912 13.9531 1.03661 13.9531 1.64066V12.3594C13.9531 12.9634 13.4634 13.4531 12.8593 13.4531Z" stroke="#FE6E00" stroke-miterlimit="10"/>
<path d="M1.12891 10.9648L4.99027 7.10348C5.41741 6.67634 6.10991 6.67634 6.53705 7.10348L8.62107 9.18751L9.61135 8.19723C10.0385 7.77009 10.731 7.77009 11.1581 8.19723L13.83 10.8691" stroke="#FE6E00" stroke-miterlimit="10"/>
<path d="M8.26562 3.82813C8.26562 4.43218 8.7553 4.92188 9.35937 4.92188C9.96345 4.92188 10.4531 4.43218 10.4531 3.82813C10.4531 3.22408 9.96345 2.73438 9.35937 2.73438C8.7553 2.73438 8.26562 3.22408 8.26562 3.82813Z" stroke="#FE6E00" stroke-miterlimit="10"/>
</g>
<defs>
<clipPath id="clip0_217_15020">
<rect width="14" height="14" fill="white" transform="translate(0.5)"/>
</clipPath>
</defs>
</svg>
