<svg width="12" height="13" viewBox="0 0 12 13" fill="none" xmlns="http://www.w3.org/2000/svg">
<path fill-rule="evenodd" clip-rule="evenodd" d="M1.34254 5.94395C4.24164 4.81496 6.17482 4.07067 7.1421 3.71106C9.90386 2.68431 10.4777 2.50595 10.8518 2.50006C10.934 2.49877 11.118 2.51699 11.2371 2.60341C11.3377 2.67638 11.3654 2.77495 11.3787 2.84413C11.3919 2.91331 11.4084 3.07091 11.3953 3.19406C11.2456 4.5996 10.5981 8.01048 10.2686 9.58472C10.1292 10.2508 9.85471 10.4742 9.58897 10.496C9.01146 10.5435 8.57293 10.1549 8.01358 9.82717C7.13831 9.31434 6.64384 8.9951 5.79424 8.49467C4.81238 7.91633 5.44888 7.59847 6.00844 7.079C6.15488 6.94305 8.6994 4.87434 8.74865 4.68667C8.75481 4.6632 8.76053 4.57572 8.70238 4.52952C8.64423 4.48332 8.55841 4.49912 8.49648 4.51168C8.40869 4.52949 7.01044 5.35556 4.30172 6.98989C3.90484 7.23349 3.54535 7.35218 3.22326 7.34596C2.86818 7.3391 2.18515 7.1665 1.67738 7.01898C1.05459 6.83803 0.559612 6.74236 0.602714 6.43505C0.625164 6.27498 0.871773 6.11128 1.34254 5.94395Z" fill="#FDFDFD"/>
</svg>
