<svg width="24" height="24" viewBox="0 0 24 24" fill="none" xmlns="http://www.w3.org/2000/svg">
<path d="M18.7355 3.56348C18.8685 3.56102 19.0468 3.57671 19.2345 3.62402C19.3954 3.66461 19.6086 3.73942 19.8087 3.88574L19.8937 3.95312L20.0245 4.08203C20.3005 4.38985 20.367 4.7402 20.3917 4.89258C20.4201 5.06813 20.4538 5.4388 20.4249 5.75977C20.1796 8.48174 19.1278 15.0256 18.5958 18.0283C18.4725 18.7245 18.275 19.2783 17.9865 19.6836C17.6823 20.1109 17.2681 20.378 16.7863 20.4248C16.0701 20.4943 15.4788 20.2336 15.0031 19.9385C14.7669 19.792 14.5398 19.6243 14.3312 19.4678C14.1146 19.3053 13.9178 19.1549 13.7081 19.0098C12.9946 18.5159 12.4357 18.1153 11.8868 17.7207C11.3381 17.3262 10.8 16.9375 10.1193 16.4639C9.67839 16.1571 9.31654 15.8188 9.11633 15.4141C8.89099 14.9584 8.91124 14.5049 9.07629 14.1074C9.221 13.7591 9.47147 13.4669 9.67786 13.2451C9.78631 13.1286 9.90415 13.0101 10.0118 12.9004C10.1229 12.7872 10.229 12.6784 10.3312 12.5664L11.006 11.8965C10.3004 12.3967 9.50888 12.9577 8.63293 13.582C7.92005 14.0988 7.16877 14.4314 6.40344 14.4141C6.01406 14.4052 5.51463 14.2972 5.05969 14.1768C4.58514 14.0511 4.08485 13.8918 3.66321 13.7471C3.22414 13.5964 2.67087 13.4321 2.28625 13.2354C2.08231 13.131 1.83749 12.9774 1.65247 12.7373C1.4451 12.4682 1.3494 12.1377 1.39172 11.7812C1.44705 11.3155 1.75485 10.9891 2.01868 10.7822C2.29245 10.5676 2.64682 10.3805 3.047 10.2109C7.73125 8.05613 10.862 6.63218 12.4327 5.94238C14.6614 4.96363 16.0269 4.38058 16.9132 4.04102C17.7844 3.70723 18.2817 3.57192 18.7355 3.56348Z" stroke="#AEB2B7" stroke-width="1.6"/>
</svg>
