<svg width="24" height="24" viewBox="0 0 24 24" fill="none" xmlns="http://www.w3.org/2000/svg">
<rect width="24" height="24" rx="12" fill="#FDFDFD"/>
<path fill-rule="evenodd" clip-rule="evenodd" d="M5.78997 11.2579C9.65544 9.75263 12.233 8.76024 13.5227 8.28076C17.2051 6.91176 17.9702 6.67395 18.4689 6.6661C18.5786 6.66437 18.8239 6.68867 18.9828 6.80389C19.1169 6.90118 19.1538 7.03261 19.1715 7.12486C19.1891 7.2171 19.2111 7.42723 19.1936 7.59142C18.9941 9.46548 18.1307 14.0133 17.6914 16.1123C17.5055 17.0005 17.1395 17.2983 16.7852 17.3274C16.0152 17.3907 15.4305 16.8725 14.6847 16.4356C13.5177 15.7518 12.8584 15.3261 11.7256 14.6589C10.4164 13.8878 11.2651 13.464 12.0112 12.7713C12.2064 12.5901 15.5991 9.8318 15.6648 9.58158C15.673 9.55029 15.6806 9.43364 15.6031 9.37204C15.5256 9.31045 15.4111 9.33151 15.3286 9.34826C15.2115 9.37201 13.3472 10.4734 9.73555 12.6525C9.20637 12.9773 8.72705 13.1356 8.29759 13.1273C7.82415 13.1181 6.91345 12.888 6.23643 12.6913C5.40604 12.45 4.74607 12.3225 4.80354 11.9127C4.83347 11.6993 5.16228 11.4811 5.78997 11.2579Z" fill="#1C1C1C"/>
</svg>
