<svg width="32" height="32" viewBox="0 0 32 32" fill="none" xmlns="http://www.w3.org/2000/svg">
<g clip-path="url(#clip0_334_13903)">
<path d="M31.3416 15.9506C31.3951 15.9915 31.3416 16.0091 31.2936 16.016C31.1523 16.0336 30.9808 16.0064 30.8327 16.016C23.5981 16.4976 17.9355 20.9779 16.4211 28.0785C16.1962 29.1316 16.0727 30.2064 16.0329 31.2813C15.9589 31.0758 16 30.8568 15.9835 30.6445C15.3457 22.2799 9.63513 16.6309 1.20029 16.0146C1.0343 16.0023 0.77093 16.0704 0.658447 15.9493C3.89164 15.8731 7.15776 14.8881 9.77916 13.0078C13.2867 10.4894 15.3635 6.60779 15.882 2.35881C15.9506 1.80098 15.9561 1.235 16.0343 0.682617C16.1344 4.11799 17.2277 7.52615 19.3594 10.2377C22.214 13.869 26.727 15.8418 31.3429 15.9493L31.3416 15.9506Z" fill="#FDFDFD"/>
</g>
<defs>
<clipPath id="clip0_334_13903">
<rect width="32" height="32" fill="white"/>
</clipPath>
</defs>
</svg>
