<svg width="24" height="24" viewBox="0 0 24 24" fill="none" xmlns="http://www.w3.org/2000/svg">
<rect width="24" height="24" rx="12" fill="#FDFDFD"/>
<path d="M19.8406 8.8002C19.8406 8.8002 19.6844 7.69707 19.2031 7.2127C18.5938 6.5752 17.9125 6.57207 17.6 6.53457C15.3625 6.37207 12.0031 6.37207 12.0031 6.37207H11.9969C11.9969 6.37207 8.6375 6.37207 6.4 6.53457C6.0875 6.57207 5.40625 6.5752 4.79688 7.2127C4.31563 7.69707 4.1625 8.8002 4.1625 8.8002C4.1625 8.8002 4 10.0971 4 11.3908V12.6033C4 13.8971 4.15937 15.1939 4.15937 15.1939C4.15937 15.1939 4.31562 16.2971 4.79375 16.7814C5.40313 17.4189 6.20313 17.3971 6.55938 17.4658C7.84063 17.5877 12 17.6252 12 17.6252C12 17.6252 15.3625 17.6189 17.6 17.4596C17.9125 17.4221 18.5938 17.4189 19.2031 16.7814C19.6844 16.2971 19.8406 15.1939 19.8406 15.1939C19.8406 15.1939 20 13.9002 20 12.6033V11.3908C20 10.0971 19.8406 8.8002 19.8406 8.8002ZM10.3469 14.0752V9.57832L14.6687 11.8346L10.3469 14.0752Z" fill="#1C1C1C"/>
</svg>
