<svg width="12" height="13" viewBox="0 0 12 13" fill="none" xmlns="http://www.w3.org/2000/svg">
<path d="M11.8805 4.10039C11.8805 4.10039 11.7633 3.27305 11.4023 2.90977C10.9453 2.43164 10.4344 2.4293 10.2 2.40117C8.52188 2.2793 6.00234 2.2793 6.00234 2.2793H5.99766C5.99766 2.2793 3.47813 2.2793 1.8 2.40117C1.56563 2.4293 1.05469 2.43164 0.597656 2.90977C0.236719 3.27305 0.121875 4.10039 0.121875 4.10039C0.121875 4.10039 0 5.07305 0 6.04336V6.95273C0 7.92305 0.119531 8.8957 0.119531 8.8957C0.119531 8.8957 0.236719 9.72305 0.595312 10.0863C1.05234 10.5645 1.65234 10.548 1.91953 10.5996C2.88047 10.691 6 10.7191 6 10.7191C6 10.7191 8.52188 10.7145 10.2 10.5949C10.4344 10.5668 10.9453 10.5645 11.4023 10.0863C11.7633 9.72305 11.8805 8.8957 11.8805 8.8957C11.8805 8.8957 12 7.92539 12 6.95273V6.04336C12 5.07305 11.8805 4.10039 11.8805 4.10039ZM4.76016 8.05664V4.68398L8.00156 6.37617L4.76016 8.05664Z" fill="#FDFDFD"/>
</svg>
